<svg version="1.1" xmlns="http://www.w3.org/2000/svg" viewBox="0 0 1220.7438694947411 489.72777164162017" width="2441.4877389894823" height="979.4555432832403" filter="invert(93%) hue-rotate(180deg)">
  <!-- svg-source:excalidraw -->
  
  <defs>
    <style class="style-fonts">
      @font-face {
        font-family: "Virgil";
        src: url("https://excalidraw.com/Virgil.woff2");
      }
      @font-face {
        font-family: "Cascadia";
        src: url("https://excalidraw.com/Cascadia.woff2");
      }
      @font-face {
        font-family: "Assistant";
        src: url("https://excalidraw.com/Assistant-Regular.woff2");
      }
    </style>
    
  </defs>
  <g stroke-linecap="round" transform="translate(146.8043229812473 139.12098152863086) rotate(0 150.64630407925284 132.22668305311527)"><path d="M32 0 C88.71 3.22, 147.41 0.62, 269.29 0 M32 0 C104.35 -1.8, 179.72 -3.7, 269.29 0 M269.29 0 C293.22 -0.07, 301.25 13.75, 301.29 32 M269.29 0 C289.56 -4.05, 305.81 13.91, 301.29 32 M301.29 32 C299.63 75.71, 301.48 111.87, 301.29 232.45 M301.29 32 C299.42 84.3, 297.88 134.97, 301.29 232.45 M301.29 232.45 C300.65 251.44, 291.26 267.62, 269.29 264.45 M301.29 232.45 C300.22 255.12, 289.5 261.19, 269.29 264.45 M269.29 264.45 C180.51 261.74, 89.43 262.93, 32 264.45 M269.29 264.45 C182.36 260.22, 94.72 262, 32 264.45 M32 264.45 C14.65 261.6, -2.56 249.99, 0 232.45 M32 264.45 C8.09 260.72, 0.62 256.41, 0 232.45 M0 232.45 C-2.61 172.29, -1.21 112.11, 0 32 M0 232.45 C3.2 178.39, -0.01 123.88, 0 32 M0 32 C-0.39 12.49, 11.46 0.05, 32 0 M0 32 C0.52 12.88, 6.39 -4.58, 32 0" stroke="#1e1e1e" stroke-width="1" fill="none"></path></g><g stroke-linecap="round"><g transform="translate(216.84045322356303 148.405024797044) rotate(0 0.18409888003893116 127.54462880834262)"><path d="M1.74 -1.23 C1.48 41.15, -2.38 210.45, -2.32 252.84 M-0.76 4.28 C-0.11 47.24, 2.33 214.32, 2.69 256.31" stroke="#1e1e1e" stroke-width="2" fill="none"></path></g></g><mask></mask><g stroke-linecap="round"><g transform="translate(299.47371543936976 145.46584949311932) rotate(0 0.11121826533906187 125.06952336515553)"><path d="M1.2 -0.51 C1.67 41.45, 1.52 208.82, 1.82 250.95 M-1.59 -3.26 C-1.26 39.06, -0.29 210.37, 0.42 253.4" stroke="#1e1e1e" stroke-width="2" fill="none"></path></g></g><mask></mask><g stroke-linecap="round"><g transform="translate(371.786614321723 143.32202793709575) rotate(0 0.46360277236186676 126.887506118857)"><path d="M-0.7 -2.72 C-0.89 39.18, -0.76 210.63, -0.53 252.95 M4.12 1.98 C3.42 44.2, -2.36 214.61, -3.2 256.49" stroke="#1e1e1e" stroke-width="2" fill="none"></path></g></g><mask></mask><g stroke-linecap="round"><g transform="translate(444.9237266445107 202.27205311626722) rotate(0 -145.60801201579852 1.1657221159059645)"><path d="M0.24 -1.3 C-48 -1.94, -241.46 -1.91, -290.58 -1.7 M-3.08 4.17 C-51.36 3.86, -242.45 3.59, -291.46 2.15" stroke="#1e1e1e" stroke-width="2" fill="none"></path></g></g><mask></mask><g stroke-linecap="round"><g transform="translate(442.7716057556335 270.56465356006015) rotate(0 -145.92211491105834 -0.288495236913036)"><path d="M0.61 1.98 C-47.93 1.19, -242.23 -1.98, -291.23 -2.56 M-2.5 0.58 C-51.25 0.04, -243.64 0.61, -292.46 0.83" stroke="#1e1e1e" stroke-width="2" fill="none"></path></g></g><mask></mask><g stroke-linecap="round"><g transform="translate(439.0606436944382 339.69274991845623) rotate(0 -147.07059606590997 -1.9681333867257536)"><path d="M-1.52 -2.69 C-50.53 -2.52, -245.46 -1.46, -294.17 -1.36 M2.84 2.03 C-46.63 1.52, -247.19 -5.79, -296.98 -5.97" stroke="#1e1e1e" stroke-width="2" fill="none"></path></g></g><mask></mask><g transform="translate(-11.552545039632633 241.91832143215538) rotate(270.0352661708725 48.99977389788715 27.417074163836446)"><text x="0" y="38.42777114803316" font-family="Virgil, Segoe UI Emoji" font-size="43.86731866213831px" fill="#1e1e1e" text-anchor="start" style="white-space: pre;" direction="ltr" dominant-baseline="alphabetic">User</text></g><g transform="translate(89.00882483992501 138.02025918309255) rotate(359.2721930421479 18.069986787345783 34.43214337312395)"><text x="0" y="48.26009215177052" font-family="Virgil, Segoe UI Emoji" font-size="55.09142939699831px" fill="#1e1e1e" text-anchor="start" style="white-space: pre;" direction="ltr" dominant-baseline="alphabetic">A</text></g><g transform="translate(88.69395895434917 201.95476057448423) rotate(2.533109354141328 20.02521514892578 34.43214337312395)"><text x="0" y="48.26009215177052" font-family="Virgil, Segoe UI Emoji" font-size="55.09142939699831px" fill="#1e1e1e" text-anchor="start" style="white-space: pre;" direction="ltr" dominant-baseline="alphabetic">B</text></g><g transform="translate(88.47708895121639 264.8739492184209) rotate(359.8749002435255 17.738975524902344 34.43214337312395)"><text x="0" y="48.26009215177052" font-family="Virgil, Segoe UI Emoji" font-size="55.09142939699831px" fill="#1e1e1e" text-anchor="start" style="white-space: pre;" direction="ltr" dominant-baseline="alphabetic">C</text></g><g transform="translate(87.58469164400884 330.755216052351) rotate(359.89282683062044 21.48509979248047 34.43214337312395)"><text x="0" y="48.26009215177052" font-family="Virgil, Segoe UI Emoji" font-size="55.09142939699831px" fill="#1e1e1e" text-anchor="start" style="white-space: pre;" direction="ltr" dominant-baseline="alphabetic">D</text></g><g transform="translate(243.0366629602018 14.172763697976052) rotate(359.1077608103059 50.21968078613281 27.417074163836446)"><text x="0" y="38.42777114803316" font-family="Virgil, Segoe UI Emoji" font-size="43.86731866213831px" fill="#1e1e1e" text-anchor="start" style="white-space: pre;" direction="ltr" dominant-baseline="alphabetic">Item</text></g><g transform="translate(169.22892907741885 66.35325274079833) rotate(359.2721930421479 20.548568725585938 34.43214337312395)"><text x="0" y="48.26009215177052" font-family="Virgil, Segoe UI Emoji" font-size="55.09142939699831px" fill="#1e1e1e" text-anchor="start" style="white-space: pre;" direction="ltr" dominant-baseline="alphabetic">W</text></g><g transform="translate(244.00572929371936 64.30521441473661) rotate(359.2721930421479 16.471908569335938 34.43214337312395)"><text x="0" y="48.26009215177052" font-family="Virgil, Segoe UI Emoji" font-size="55.09142939699831px" fill="#1e1e1e" text-anchor="start" style="white-space: pre;" direction="ltr" dominant-baseline="alphabetic">X</text></g><g transform="translate(318.9695752846517 63.19997342487795) rotate(359.2721930421479 14.213218688964844 34.43214337312395)"><text x="0" y="48.26009215177052" font-family="Virgil, Segoe UI Emoji" font-size="55.09142939699831px" fill="#1e1e1e" text-anchor="start" style="white-space: pre;" direction="ltr" dominant-baseline="alphabetic">Y</text></g><g transform="translate(391.5803151514074 64.50483276070827) rotate(359.2721930421479 21.95336151123047 34.43214337312395)"><text x="0" y="48.26009215177052" font-family="Virgil, Segoe UI Emoji" font-size="55.09142939699831px" fill="#1e1e1e" text-anchor="start" style="white-space: pre;" direction="ltr" dominant-baseline="alphabetic">Z</text></g><g transform="translate(178.70992465946918 435.229227476555) rotate(359.1077608103059 116.20421569512972 21.345806984399815)"><text x="0" y="29.918283069334777" font-family="Virgil, Segoe UI Emoji" font-size="34.1532911750397px" fill="#1e1e1e" text-anchor="start" style="white-space: pre;" direction="ltr" dominant-baseline="alphabetic">Rating Matrix</text></g><g transform="translate(235.25210429359709 155.48797548632297) rotate(359.2721930421479 20.563918004653857 16.544110484091107)"><text x="0" y="23.18822525450205" font-family="Virgil, Segoe UI Emoji" font-size="26.47057677454572px" fill="#1e1e1e" text-anchor="start" style="white-space: pre;" direction="ltr" dominant-baseline="alphabetic">4.6</text></g><g transform="translate(386.3817892336971 350.9717028227383) rotate(359.2721930421479 21.496984061494857 16.52896431332863)"><text x="0" y="23.16699638156144" font-family="Virgil, Segoe UI Emoji" font-size="26.44634290132584px" fill="#1e1e1e" text-anchor="start" style="white-space: pre;" direction="ltr" dominant-baseline="alphabetic">2.4</text></g><g transform="translate(160.42397496130513 349.33477679951807) rotate(359.2721930421479 21.37219288789612 17.89690822302134)"><text x="0" y="25.084306565386644" font-family="Virgil, Segoe UI Emoji" font-size="28.635053156834065px" fill="#1e1e1e" text-anchor="start" style="white-space: pre;" direction="ltr" dominant-baseline="alphabetic">3.7</text></g><g transform="translate(386.1609834162108 155.45962279374248) rotate(359.2721930421479 16.389225551422157 16.61820467639393)"><text x="0" y="23.29207567443369" font-family="Virgil, Segoe UI Emoji" font-size="26.589127482230236px" fill="#1e1e1e" text-anchor="start" style="white-space: pre;" direction="ltr" dominant-baseline="alphabetic">1.0</text></g><g transform="translate(238.4643011454442 292.31496457882395) rotate(359.2721930421479 18.958783756464697 15.001756080421842)"><text x="0" y="21.026461322319214" font-family="Virgil, Segoe UI Emoji" font-size="24.002809728674904px" fill="#1e1e1e" text-anchor="start" style="white-space: pre;" direction="ltr" dominant-baseline="alphabetic">5.0</text></g><g transform="translate(394.1118501637766 225.8128663708369) rotate(359.2721930421479 20.19619179570043 15.761430834479825)"><text x="0" y="22.091221457606885" font-family="Virgil, Segoe UI Emoji" font-size="25.21828933516768px" fill="#1e1e1e" text-anchor="start" style="white-space: pre;" direction="ltr" dominant-baseline="alphabetic">4.0</text></g><g transform="translate(165.92859697246854 226.3398737558175) rotate(359.2721930421479 19.365723709197937 14.736178764508281)"><text x="0" y="20.654228156334845" font-family="Virgil, Segoe UI Emoji" font-size="23.577886023213296px" fill="#1e1e1e" text-anchor="start" style="white-space: pre;" direction="ltr" dominant-baseline="alphabetic">3.0</text></g><g stroke-linecap="round" transform="translate(641.6284129163823 139.06306815349603) rotate(0 74.17996760732188 132.22668305311527)"><path d="M32 0 C50.14 -0.67, 69.98 3.17, 116.36 0 M32 0 C54.17 -3.31, 71.89 -3.05, 116.36 0 M116.36 0 C138.67 1.08, 148.65 9.71, 148.36 32 M116.36 0 C137.3 0.39, 148.92 7.6, 148.36 32 M148.36 32 C149.38 98.39, 144.09 155.81, 148.36 232.45 M148.36 32 C150.63 98.78, 152.23 165.83, 148.36 232.45 M148.36 232.45 C147.83 251.66, 133.7 261.22, 116.36 264.45 M148.36 232.45 C150.25 257.55, 135.14 263.27, 116.36 264.45 M116.36 264.45 C83.87 265.91, 50.82 267.28, 32 264.45 M116.36 264.45 C88.21 262.97, 59.67 261.68, 32 264.45 M32 264.45 C11.11 265.8, -0.15 255.33, 0 232.45 M32 264.45 C14.79 262.77, -0.13 251.76, 0 232.45 M0 232.45 C2.2 161.73, 0.92 87.16, 0 32 M0 232.45 C-3.1 182.4, -2.57 129.42, 0 32 M0 32 C3.33 7.51, 7.83 0.5, 32 0 M0 32 C-4.23 7.71, 13.86 1.14, 32 0" stroke="#1e1e1e" stroke-width="1" fill="none"></path></g><g stroke-linecap="round"><g transform="translate(711.664543158698 148.3471114219094) rotate(0 1.646030804672023 127.64882041092278)"><path d="M-0.76 2.35 C-0.28 44.16, 1.94 209.19, 2.19 251.43 M4.02 1.15 C4.37 43.24, 1.81 212.39, 0.99 254.14" stroke="#1e1e1e" stroke-width="2" fill="none"></path></g></g><mask></mask><g stroke-linecap="round"><g transform="translate(780.6389783911247 201.6136792312352) rotate(0 -67.35559278850053 -0.5590474540761079)"><path d="M2.72 -2.4 C-19.82 -3.43, -112.1 -3.82, -134.77 -3.55 M0.75 2.48 C-22.27 2.94, -114.85 -1.07, -137.43 -1.02" stroke="#1e1e1e" stroke-width="2" fill="none"></path></g></g><mask></mask><g stroke-linecap="round"><g transform="translate(783.0727921657497 269.4971747122411) rotate(0 -67.88088039507392 -0.956231815828346)"><path d="M-0.78 -2.04 C-24.21 -1.69, -114.96 -0.39, -137.89 -0.34 M4 3.03 C-19.99 2.7, -115.75 -4.6, -139.76 -4.94" stroke="#1e1e1e" stroke-width="2" fill="none"></path></g></g><mask></mask><g stroke-linecap="round"><g transform="translate(775.8184532494456 339.8723813604238) rotate(0 -68.13753360227736 -1.1313711677648826)"><path d="M0.69 0.76 C-21.66 0.59, -112.17 -2.54, -134.83 -3.02 M-2.39 -1.3 C-25.01 -0.86, -114.49 -0.16, -136.96 0.24" stroke="#1e1e1e" stroke-width="2" fill="none"></path></g></g><mask></mask><g transform="translate(730.0760989346286 155.02574891056474) rotate(359.2721930421479 21.745094299316406 16.544110484091107)"><text x="0" y="23.18822525450205" font-family="Virgil, Segoe UI Emoji" font-size="26.47057677454572px" fill="#1e1e1e" text-anchor="start" style="white-space: pre;" direction="ltr" dominant-baseline="alphabetic">0.3</text></g><g transform="translate(660.6459193675234 348.92950361895237) rotate(359.2721930421479 17.550186157226562 17.89690822302134)"><text x="0" y="25.084306565386644" font-family="Virgil, Segoe UI Emoji" font-size="28.635053156834065px" fill="#1e1e1e" text-anchor="start" style="white-space: pre;" direction="ltr" dominant-baseline="alphabetic">1.3</text></g><g transform="translate(733.288369684961 292.2536825573045) rotate(359.2721930421479 19.223983764648438 15.001756080421842)"><text x="0" y="21.026461322319214" font-family="Virgil, Segoe UI Emoji" font-size="24.002809728674904px" fill="#1e1e1e" text-anchor="start" style="white-space: pre;" direction="ltr" dominant-baseline="alphabetic">0.6</text></g><g transform="translate(660.7526869076034 226.28196038068313) rotate(359.2721930421479 19.365723709197937 14.736178764508281)"><text x="0" y="20.654228156334845" font-family="Virgil, Segoe UI Emoji" font-size="23.577886023213296px" fill="#1e1e1e" text-anchor="start" style="white-space: pre;" direction="ltr" dominant-baseline="alphabetic">3.0</text></g><g transform="translate(485.78023835454997 214.0975067103725) rotate(359.2721930421479 33.50309753417969 67.87574059074996)"><text x="0" y="95.1346380119951" font-family="Virgil, Segoe UI Emoji" font-size="108.60118494519988px" fill="#1e1e1e" text-anchor="start" style="white-space: pre;" direction="ltr" dominant-baseline="alphabetic">=</text></g><g transform="translate(815.4031184800896 140.21819224095088) rotate(359.2721930421479 40.82168055652761 90.79656156932595)"><text x="0" y="127.2604606955672" font-family="Virgil, Segoe UI Emoji" font-size="145.27449851092146px" fill="#1e1e1e" text-anchor="start" style="white-space: pre;" direction="ltr" dominant-baseline="alphabetic">x</text></g><g transform="translate(573.6832598290813 150.51266166862456) rotate(359.2721930421479 18.069986787345783 34.43214337312395)"><text x="0" y="48.26009215177052" font-family="Virgil, Segoe UI Emoji" font-size="55.09142939699831px" fill="#1e1e1e" text-anchor="start" style="white-space: pre;" direction="ltr" dominant-baseline="alphabetic">A</text></g><g transform="translate(573.3683939435055 214.44716306001624) rotate(2.533109354141328 20.02521514892578 34.43214337312395)"><text x="0" y="48.26009215177052" font-family="Virgil, Segoe UI Emoji" font-size="55.09142939699831px" fill="#1e1e1e" text-anchor="start" style="white-space: pre;" direction="ltr" dominant-baseline="alphabetic">B</text></g><g transform="translate(573.1515239403727 277.3663517039529) rotate(359.8749002435255 17.738975524902344 34.43214337312395)"><text x="0" y="48.26009215177052" font-family="Virgil, Segoe UI Emoji" font-size="55.09142939699831px" fill="#1e1e1e" text-anchor="start" style="white-space: pre;" direction="ltr" dominant-baseline="alphabetic">C</text></g><g transform="translate(572.2591266331651 343.24761853788345) rotate(359.89282683062044 21.48509979248047 34.43214337312395)"><text x="0" y="48.26009215177052" font-family="Virgil, Segoe UI Emoji" font-size="55.09142939699831px" fill="#1e1e1e" text-anchor="start" style="white-space: pre;" direction="ltr" dominant-baseline="alphabetic">D</text></g><g transform="translate(654.7119552205797 159.30104009095567) rotate(359.2721930421479 16.636383056640625 16.544110484091107)"><text x="0" y="23.18822525450205" font-family="Virgil, Segoe UI Emoji" font-size="26.47057677454572px" fill="#1e1e1e" text-anchor="start" style="white-space: pre;" direction="ltr" dominant-baseline="alphabetic">1.2</text></g><g transform="translate(737.9398197649333 228.13881799850788) rotate(359.2721930421479 18.85198974609375 15.001756080421842)"><text x="0" y="21.026461322319214" font-family="Virgil, Segoe UI Emoji" font-size="24.002809728674904px" fill="#1e1e1e" text-anchor="start" style="white-space: pre;" direction="ltr" dominant-baseline="alphabetic">0.9</text></g><g transform="translate(663.8481786852118 289.8235980635093) rotate(359.2721930421479 14.530899047851562 14.736178764508281)"><text x="0" y="20.654228156334845" font-family="Virgil, Segoe UI Emoji" font-size="23.577886023213296px" fill="#1e1e1e" text-anchor="start" style="white-space: pre;" direction="ltr" dominant-baseline="alphabetic">1.0</text></g><g transform="translate(733.5637661116007 358.31861970960995) rotate(359.2721930421479 19.223983764648438 15.001756080421842)"><text x="0" y="21.026461322319214" font-family="Virgil, Segoe UI Emoji" font-size="24.002809728674904px" fill="#1e1e1e" text-anchor="start" style="white-space: pre;" direction="ltr" dominant-baseline="alphabetic">0.6</text></g><g stroke-linecap="round" transform="translate(1003.6665004553527 28.156276879927418) rotate(90.52230615656805 74.17996760732183 132.22668305311527)"><path d="M32 0 C65.93 1.2, 95.12 0.92, 116.36 0 M32 0 C56.74 -0.43, 79.85 -1.32, 116.36 0 M116.36 0 C134.57 2.02, 149.27 10.67, 148.36 32 M116.36 0 C137.87 -1.96, 152.3 12.37, 148.36 32 M148.36 32 C145.92 106.46, 147.4 179.85, 148.36 232.45 M148.36 32 C145.63 104.12, 145.01 173.75, 148.36 232.45 M148.36 232.45 C148.18 249.91, 139.04 264.09, 116.36 264.45 M148.36 232.45 C148.29 257.03, 136.14 261.24, 116.36 264.45 M116.36 264.45 C88.88 261.89, 66.09 263.99, 32 264.45 M116.36 264.45 C89.25 261.7, 62.42 262.75, 32 264.45 M32 264.45 C14.41 261.66, 1.01 250.44, 0 232.45 M32 264.45 C6.22 268.22, -3.17 252.27, 0 232.45 M0 232.45 C-1.42 167.53, -5.66 102.27, 0 32 M0 232.45 C-2.56 172.06, -2.28 110.32, 0 32 M0 32 C3.94 10.27, 12.03 2.93, 32 0 M0 32 C-0.08 14.65, 15.02 -4.58, 32 0" stroke="#1e1e1e" stroke-width="1" fill="none"></path></g><g stroke-linecap="round"><g transform="translate(1074.2140146417942 25.59984430034433) rotate(90.52230615656805 -1.9783683679813748 128.60950605507264)"><path d="M-0.27 2.08 C0.14 43.79, -0.34 210.73, -0.2 252.94 M-3.86 0.74 C-3.63 44.11, -3.16 214.77, -2.69 256.48" stroke="#1e1e1e" stroke-width="2" fill="none"></path></g></g><mask></mask><g stroke-linecap="round"><g transform="translate(1216.9403068978315 159.03012106347296) rotate(90.52230615656805 -68.11060695056403 -1.2802081249205912)"><path d="M-0.47 -0.17 C-22.7 -0.4, -111.42 0.72, -133.69 0.71 M-4.16 -2.74 C-26.72 -3.91, -113.8 -2.71, -135.76 -3.1" stroke="#1e1e1e" stroke-width="2" fill="none"></path></g></g><mask></mask><g stroke-linecap="round"><g transform="translate(1150.9358242880878 158.346082154982) rotate(90.52230615656805 -70.29792609968456 -0.9713154514015514)"><path d="M0.31 2.22 C-22.72 2.27, -115.09 0.72, -138.64 0.17 M-2.97 0.95 C-26.33 0.18, -118.82 -4.34, -140.91 -4.16" stroke="#1e1e1e" stroke-width="2" fill="none"></path></g></g><mask></mask><g stroke-linecap="round"><g transform="translate(1078.53037641152 151.4617510882706) rotate(90.52230615656805 -68.74724943284934 -0.4368109356353216)"><path d="M-0.06 1.27 C-23.01 0.51, -114.58 -1.96, -137.44 -2.33 M-3.53 -0.51 C-25.67 -0.99, -111 2.17, -132.34 1.31" stroke="#1e1e1e" stroke-width="2" fill="none"></path></g></g><mask></mask><g transform="translate(1155.4888353141237 180.75919599101076) rotate(359.6505995416716 21.745094299316406 16.544110484091107)"><text x="0" y="23.18822525450205" font-family="Virgil, Segoe UI Emoji" font-size="26.47057677454572px" fill="#1e1e1e" text-anchor="start" style="white-space: pre;" direction="ltr" dominant-baseline="alphabetic">0.3</text></g><g transform="translate(966.2545914359987 104.00444298590583) rotate(0.9082248633291468 17.550186157226562 17.89690822302134)"><text x="0" y="25.084306565386644" font-family="Virgil, Segoe UI Emoji" font-size="28.635053156834065px" fill="#1e1e1e" text-anchor="start" style="white-space: pre;" direction="ltr" dominant-baseline="alphabetic">1.3</text></g><g transform="translate(1022.3237038513489 181.75579442106823) rotate(358.40918918037954 19.223983764648438 15.001756080421842)"><text x="0" y="21.026461322319214" font-family="Virgil, Segoe UI Emoji" font-size="24.002809728674904px" fill="#1e1e1e" text-anchor="start" style="white-space: pre;" direction="ltr" dominant-baseline="alphabetic">0.6</text></g><g transform="translate(1097.1991555861964 104.5727604230076) rotate(1.6943218249747247 19.365723709197937 14.736178764508281)"><text x="0" y="20.654228156334845" font-family="Virgil, Segoe UI Emoji" font-size="23.577886023213296px" fill="#1e1e1e" text-anchor="start" style="white-space: pre;" direction="ltr" dominant-baseline="alphabetic">3.0</text></g><g transform="translate(1157.8214325420897 103.30580212294694) rotate(359.9598905557626 16.636383056640625 16.544110484091107)"><text x="0" y="23.18822525450205" font-family="Virgil, Segoe UI Emoji" font-size="26.47057677454572px" fill="#1e1e1e" text-anchor="start" style="white-space: pre;" direction="ltr" dominant-baseline="alphabetic">1.2</text></g><g transform="translate(1090.6091955073623 180.39058027159786) rotate(0.6184342011149998 18.85198974609375 15.001756080421842)"><text x="0" y="21.026461322319214" font-family="Virgil, Segoe UI Emoji" font-size="24.002809728674904px" fill="#1e1e1e" text-anchor="start" style="white-space: pre;" direction="ltr" dominant-baseline="alphabetic">0.9</text></g><g transform="translate(1028.1236508151214 101.89385203163829) rotate(1.3842497457323897 18.57013072340419 18.83247314011396)"><text x="0" y="26.395594353183782" font-family="Virgil, Segoe UI Emoji" font-size="30.131957024182395px" fill="#1e1e1e" text-anchor="start" style="white-space: pre;" direction="ltr" dominant-baseline="alphabetic">1.0</text></g><g transform="translate(956.2590012348378 181.42894228053547) rotate(1.8722364966806326 19.223983764648438 15.001756080421842)"><text x="0" y="21.026461322319214" font-family="Virgil, Segoe UI Emoji" font-size="24.002809728674904px" fill="#1e1e1e" text-anchor="start" style="white-space: pre;" direction="ltr" dominant-baseline="alphabetic">0.6</text></g><g transform="translate(169.22892907741885 65.96394317943646) rotate(359.2721930421479 20.548568725585938 34.43214337312395)"><text x="0" y="48.26009215177052" font-family="Virgil, Segoe UI Emoji" font-size="55.09142939699831px" fill="#1e1e1e" text-anchor="start" style="white-space: pre;" direction="ltr" dominant-baseline="alphabetic">W</text></g><g transform="translate(962.5991402555768 12.813245234933675) rotate(359.2721930421479 17.354379386141375 29.079810236669687)"><text x="0" y="40.758262027716285" font-family="Virgil, Segoe UI Emoji" font-size="46.52769637867156px" fill="#1e1e1e" text-anchor="start" style="white-space: pre;" direction="ltr" dominant-baseline="alphabetic">W</text></g><g transform="translate(1025.7521986298832 11.08356592819041) rotate(359.2721930421479 13.911419055194415 29.079810236669687)"><text x="0" y="40.758262027716285" font-family="Virgil, Segoe UI Emoji" font-size="46.52769637867156px" fill="#1e1e1e" text-anchor="start" style="white-space: pre;" direction="ltr" dominant-baseline="alphabetic">X</text></g><g transform="translate(1089.0632272929665 10.150130042350156) rotate(359.2721930421479 12.00383310003292 29.079810236669687)"><text x="0" y="40.758262027716285" font-family="Virgil, Segoe UI Emoji" font-size="46.52769637867156px" fill="#1e1e1e" text-anchor="start" style="white-space: pre;" direction="ltr" dominant-baseline="alphabetic">Y</text></g><g transform="translate(1150.3869303685522 11.252154434508839) rotate(359.2721930421479 18.540802989972917 29.079810236669687)"><text x="0" y="40.75826202771628" font-family="Virgil, Segoe UI Emoji" font-size="46.52769637867155px" fill="#1e1e1e" text-anchor="start" style="white-space: pre;" direction="ltr" dominant-baseline="alphabetic">Z</text></g><g transform="translate(962.5991402555768 12.484452221816355) rotate(359.2721930421479 17.354379386141375 29.079810236669687)"><text x="0" y="40.758262027716285" font-family="Virgil, Segoe UI Emoji" font-size="46.52769637867156px" fill="#1e1e1e" text-anchor="start" style="white-space: pre;" direction="ltr" dominant-baseline="alphabetic">W</text></g></svg>