<svg version="1.1" xmlns="http://www.w3.org/2000/svg" viewBox="0 0 661.0282728950806 697.296875" width="1322.0565457901612" height="1394.59375">
  <!-- svg-source:excalidraw -->
  
  <defs>
    <style class="style-fonts">
      @font-face {
        font-family: "Virgil";
        src: url("https://excalidraw.com/Virgil.woff2");
      }
      @font-face {
        font-family: "Cascadia";
        src: url("https://excalidraw.com/Cascadia.woff2");
      }
      @font-face {
        font-family: "Assistant";
        src: url("https://excalidraw.com/Assistant-Regular.woff2");
      }
    </style>
    
  </defs>
  <rect x="0" y="0" width="661.0282728950806" height="697.296875" fill="#ffffff"></rect><g stroke-linecap="round" transform="translate(150.10416951643833 340.7572687596785) rotate(1.960903001403936 11.791620654619635 11.39190470022578)"><path d="M14.29 0.01 C16.51 0.39, 19.44 2.57, 20.99 4.6 C22.53 6.63, 23.75 9.78, 23.56 12.2 C23.38 14.61, 21.65 17.33, 19.88 19.08 C18.11 20.83, 15.38 22.43, 12.94 22.71 C10.5 22.99, 7.35 22.17, 5.25 20.74 C3.14 19.3, 1.01 16.39, 0.31 14.11 C-0.39 11.83, -0.05 9.22, 1.02 7.07 C2.09 4.92, 4.37 2.33, 6.73 1.2 C9.09 0.08, 13.67 0.37, 15.2 0.3 C16.74 0.24, 15.91 0.69, 15.95 0.84 M9.19 0.71 C11.47 -0.06, 14.17 -0.2, 16.3 0.87 C18.44 1.93, 20.84 4.89, 21.99 7.11 C23.13 9.34, 23.82 12.03, 23.18 14.22 C22.54 16.4, 20.3 18.88, 18.12 20.23 C15.94 21.59, 12.46 22.4, 10.11 22.35 C7.76 22.3, 5.83 21.64, 4.03 19.92 C2.23 18.19, -0.42 14.61, -0.7 11.99 C-0.97 9.38, 0.82 6.23, 2.37 4.23 C3.91 2.23, 7.5 0.49, 8.58 -0.01 C9.66 -0.52, 8.75 1.07, 8.85 1.2" stroke="#000000" stroke-width="4" fill="none"></path></g><g stroke-linecap="round" transform="translate(106.16611725861938 396.31497287516777) rotate(1.960903001403936 11.791620654619635 11.39190470022578)"><path d="M12.55 -0.09 C15.03 0.04, 18.45 1.65, 20.22 3.37 C21.99 5.09, 23 7.8, 23.19 10.24 C23.38 12.68, 22.75 15.98, 21.36 18 C19.96 20.02, 17.29 21.8, 14.83 22.35 C12.37 22.9, 8.87 22.28, 6.58 21.3 C4.28 20.32, 2.05 18.62, 1.04 16.47 C0.02 14.32, -0.15 10.87, 0.49 8.41 C1.13 5.96, 2.66 3.14, 4.88 1.74 C7.09 0.34, 12.07 0.26, 13.78 0 C15.5 -0.26, 15.28 0.05, 15.19 0.2 M11.62 -0.28 C13.88 -0.33, 17.17 1.69, 19.16 3.33 C21.14 4.97, 23.14 7.3, 23.53 9.56 C23.92 11.82, 22.93 14.83, 21.49 16.88 C20.05 18.93, 17.16 20.93, 14.92 21.88 C12.67 22.82, 10.41 23.44, 8.03 22.54 C5.65 21.64, 1.9 18.82, 0.62 16.48 C-0.65 14.14, -0.21 10.9, 0.39 8.49 C0.99 6.08, 2.27 3.33, 4.23 2.02 C6.18 0.71, 10.79 1.06, 12.13 0.65 C13.47 0.23, 12.22 -0.44, 12.25 -0.47" stroke="#000000" stroke-width="4" fill="none"></path></g><g stroke-linecap="round" transform="translate(81.40911814176567 458.21167300147954) rotate(1.960903001403936 11.791620654619635 11.39190470022578)"><path d="M9.81 0.12 C12.16 -0.43, 15.21 0.05, 17.38 1.29 C19.56 2.52, 21.94 5.2, 22.86 7.53 C23.79 9.86, 23.84 13.04, 22.95 15.27 C22.05 17.5, 19.72 19.63, 17.5 20.91 C15.29 22.2, 12.12 23.33, 9.67 22.96 C7.21 22.6, 4.43 20.73, 2.78 18.75 C1.13 16.76, -0.22 13.56, -0.24 11.08 C-0.26 8.59, 0.88 5.73, 2.65 3.84 C4.42 1.94, 9.19 0.35, 10.4 -0.3 C11.6 -0.95, 9.87 -0.36, 9.86 -0.07 M12.69 0.45 C15.2 0.59, 18.72 1.7, 20.49 3.33 C22.26 4.96, 23.26 7.8, 23.3 10.23 C23.34 12.65, 22.09 15.75, 20.73 17.9 C19.37 20.05, 17.64 22.54, 15.13 23.11 C12.62 23.68, 8.03 22.62, 5.68 21.33 C3.34 20.03, 1.96 17.62, 1.04 15.35 C0.12 13.07, -0.54 9.82, 0.17 7.68 C0.87 5.53, 3.08 3.84, 5.26 2.46 C7.44 1.07, 11.91 -0.15, 13.25 -0.62 C14.59 -1.09, 13.31 -0.59, 13.31 -0.36" stroke="#000000" stroke-width="4" fill="none"></path></g><g stroke-linecap="round" transform="translate(125.11219530206665 459.8104634414533) rotate(1.960903001403936 11.791620654619635 11.39190470022578)"><path d="M10.62 -0.24 C12.99 -0.54, 16.58 0.69, 18.7 2.16 C20.81 3.63, 22.74 6.26, 23.33 8.57 C23.92 10.88, 23.39 13.75, 22.26 16.01 C21.13 18.28, 18.84 21.1, 16.57 22.16 C14.29 23.23, 11.07 23.19, 8.6 22.42 C6.13 21.64, 3.22 19.57, 1.77 17.5 C0.33 15.44, -0.44 12.47, -0.08 10.01 C0.28 7.56, 2.14 4.5, 3.94 2.77 C5.74 1.04, 9.46 0.02, 10.72 -0.37 C11.99 -0.77, 11.41 0.22, 11.54 0.4 M10.72 -0.26 C13.15 -0.78, 16.22 0.03, 18.21 1.41 C20.21 2.78, 21.86 5.43, 22.7 7.99 C23.54 10.54, 24.33 14.49, 23.24 16.74 C22.14 18.98, 18.51 20.61, 16.13 21.48 C13.75 22.35, 11.33 22.59, 8.94 21.95 C6.56 21.31, 3.34 19.45, 1.83 17.64 C0.32 15.84, -0.36 13.62, -0.1 11.12 C0.16 8.63, 1.57 4.65, 3.38 2.69 C5.19 0.73, 9.51 -0.14, 10.75 -0.62 C11.99 -1.1, 10.69 -0.47, 10.8 -0.18" stroke="#000000" stroke-width="4" fill="none"></path></g><g stroke-linecap="round"><g transform="translate(111.0655338966433 418.42934848438426) rotate(2.0951181981862708 -6.9458563160999915 19.73207560394991)"><path d="M-0.15 0.01 C-2.41 6.6, -11.6 32.5, -13.94 39.07 M0.77 -0.45 C-1.54 6.22, -11.82 32.83, -14.39 39.57" stroke="#e67700" stroke-width="2" fill="none"></path></g></g><mask></mask><g stroke-linecap="round"><g transform="translate(122.15132966490441 419.4083926859953) rotate(2.0951181981862708 7.20004766396363 19.596485846772566)"><path d="M-0.05 -0.39 C2.33 6.13, 11.7 32.55, 14.11 39.16 M-0.73 0.6 C1.84 7.21, 12.73 33.29, 15.19 39.85" stroke="#0000ff" stroke-width="2" fill="none"></path></g></g><mask></mask><g stroke-linecap="round" transform="translate(192.54525635394705 399.4749824390766) rotate(1.960903001403936 11.79162065461962 11.39190470022578)"><path d="M11.57 -0.37 C13.95 -0.46, 17.3 1.34, 19.28 2.97 C21.26 4.6, 23.02 7.1, 23.45 9.4 C23.87 11.7, 23.09 14.67, 21.81 16.75 C20.53 18.83, 18.04 21.05, 15.76 21.88 C13.49 22.7, 10.62 22.55, 8.18 21.7 C5.75 20.86, 2.46 18.79, 1.14 16.78 C-0.19 14.77, -0.3 12.09, 0.24 9.67 C0.79 7.26, 2.45 3.96, 4.39 2.29 C6.33 0.61, 10.5 -0.05, 11.88 -0.38 C13.26 -0.71, 12.67 0.05, 12.67 0.28 M10.16 0.84 C12.44 0.26, 14.58 0.2, 16.7 1.18 C18.82 2.17, 21.89 4.51, 22.88 6.75 C23.87 9, 23.46 12.16, 22.61 14.66 C21.77 17.16, 19.91 20.53, 17.81 21.74 C15.71 22.96, 12.5 22.53, 10.03 21.95 C7.57 21.37, 4.69 20.05, 3.03 18.26 C1.38 16.48, 0.09 13.56, 0.11 11.22 C0.13 8.89, 1.56 6, 3.16 4.23 C4.75 2.46, 8.7 1.11, 9.66 0.6 C10.62 0.09, 8.99 1.14, 8.91 1.17" stroke="#000000" stroke-width="4" fill="none"></path></g><g stroke-linecap="round" transform="translate(168.44442088308438 461.39568701158373) rotate(1.960903001403936 11.791620654619635 11.39190470022578)"><path d="M11.36 0.37 C13.79 0.22, 17.16 1.09, 19.11 2.49 C21.07 3.89, 22.59 6.43, 23.08 8.77 C23.57 11.11, 23.14 14.43, 22.05 16.55 C20.96 18.68, 18.94 20.65, 16.54 21.53 C14.14 22.41, 10.1 22.5, 7.66 21.84 C5.21 21.18, 3.09 19.67, 1.87 17.59 C0.66 15.52, 0.06 11.88, 0.37 9.37 C0.67 6.86, 1.75 4.1, 3.71 2.54 C5.67 0.99, 10.72 0.45, 12.13 0.03 C13.54 -0.38, 12.28 -0.07, 12.18 0.07 M9.61 -0.11 C11.88 -0.72, 16.13 0.06, 18.32 1.36 C20.5 2.66, 22.01 5.17, 22.71 7.69 C23.41 10.21, 23.44 14.28, 22.51 16.46 C21.59 18.65, 19.36 19.93, 17.15 20.83 C14.94 21.72, 11.68 22.33, 9.23 21.82 C6.79 21.32, 3.93 19.65, 2.49 17.8 C1.05 15.95, 0.46 13.04, 0.61 10.75 C0.75 8.45, 1.85 5.67, 3.37 4.01 C4.9 2.35, 8.67 1.51, 9.76 0.8 C10.84 0.1, 9.71 -0.27, 9.88 -0.23" stroke="#000000" stroke-width="4" fill="none"></path></g><g stroke-linecap="round" transform="translate(212.3329238330238 463.0012608864795) rotate(1.960903001403936 11.791620654619635 11.39190470022578)"><path d="M9.66 0.27 C11.96 -0.4, 15.15 0.05, 17.32 1.2 C19.49 2.35, 21.69 4.92, 22.68 7.18 C23.66 9.43, 24.15 12.47, 23.26 14.74 C22.36 17.01, 19.53 19.46, 17.32 20.8 C15.1 22.15, 12.33 23.2, 9.96 22.8 C7.59 22.4, 4.79 20.32, 3.1 18.38 C1.41 16.44, -0.16 13.51, -0.19 11.14 C-0.22 8.78, 1.25 6.07, 2.91 4.21 C4.57 2.34, 8.59 0.66, 9.77 -0.04 C10.95 -0.74, 9.96 -0.29, 9.98 0.01 M14.29 -0.23 C16.73 0.07, 19.15 1.87, 20.68 3.97 C22.21 6.07, 23.45 9.97, 23.44 12.35 C23.42 14.74, 22.24 16.65, 20.59 18.25 C18.95 19.86, 16.06 21.59, 13.58 21.99 C11.1 22.39, 7.77 21.81, 5.71 20.63 C3.64 19.45, 1.97 17.09, 1.19 14.91 C0.41 12.74, 0.31 9.7, 1.05 7.57 C1.78 5.43, 3.51 3.4, 5.61 2.09 C7.72 0.77, 12.22 -0.01, 13.68 -0.31 C15.15 -0.6, 14.26 0.11, 14.4 0.33" stroke="#000000" stroke-width="4" fill="none"></path></g><g stroke-linecap="round"><g transform="translate(197.47051687145643 421.45938292517474) rotate(2.0951181981862708 -6.7909951069685945 19.767004550126558)"><path d="M-0.41 -0.02 C-2.59 6.6, -11 33.05, -13.18 39.6 M0.38 -0.51 C-1.84 6.23, -11.04 33.63, -13.41 40.33" stroke="#000000" stroke-width="2" fill="none"></path></g></g><mask></mask><g stroke-linecap="round"><g transform="translate(208.0902815441096 422.75071842872876) rotate(2.0951181981862708 7.5893281827900125 19.538343697132177)"><path d="M0.87 0.14 C3.58 6.56, 13.08 32.06, 15.36 38.49 M-0.13 -0.83 C2.52 5.75, 12.24 32.94, 14.5 39.73" stroke="#000000" stroke-width="2" fill="none"></path></g></g><mask></mask><g stroke-linecap="round"><g transform="translate(152.5684238915257 360.7296915429905) rotate(2.0951181981862708 -13.80652074461581 18.370961146821628)"><path d="M0 0 C-4.6 6.12, -23.01 30.62, -27.61 36.74 M0 0 C-4.6 6.12, -23.01 30.62, -27.61 36.74" stroke="#000000" stroke-width="4" fill="none"></path></g></g><mask></mask><g stroke-linecap="round"><g transform="translate(169.18684915925022 362.3402130306815) rotate(2.0951181981862708 13.87596188532801 18.784816270472106)"><path d="M0 0 C4.63 6.26, 23.13 31.31, 27.75 37.57 M0 0 C4.63 6.26, 23.13 31.31, 27.75 37.57" stroke="#862e9c" stroke-width="4" fill="none"></path></g></g><mask></mask><g stroke-linecap="round"><g transform="translate(121.11768076869515 388.31316889769073) rotate(272.09511819818624 23.379278254067316 47.91308876759473)"><path d="M-0.46 0.81 C7.27 16.64, 38.03 78.78, 45.74 94.65 M1.51 0.18 C9.65 16.15, 40.13 79.36, 47.92 95.57" stroke="#ff0000" stroke-width="2" fill="none"></path></g></g><mask></mask><g stroke-linecap="round"><g transform="translate(142.09650961678815 410.3817307383275) rotate(272.09511819818624 22.22474599460722 26.842875032447694)"><path d="M-1.02 -1.17 C6.31 7.67, 35.88 44.64, 43.52 53.88 M0.65 0.82 C8.39 9.21, 38.47 43.29, 45.75 51.86" stroke="#ff0000" stroke-width="2" fill="none"></path></g></g><mask></mask><g stroke-linecap="round"><g transform="translate(132.79433536517203 461.9082800357173) rotate(272.09511819818624 23.66791131893227 -26.26560890271753)"><path d="M-0.93 0.19 C7.2 -8.26, 39.87 -43.07, 47.74 -51.93 M0.79 -0.75 C8.88 -9.46, 39.03 -45.21, 47 -53.74" stroke="#1864ab" stroke-width="2" fill="none"></path></g></g><mask></mask><g stroke-linecap="round"><g transform="translate(152.18535454173602 482.1825961006226) rotate(272.09511819818624 24.82244357839248 -46.75855650813463)"><path d="M0.4 0.6 C8.66 -15.09, 40.54 -78.38, 48.6 -93.97 M-0.85 -0.13 C7.85 -15.68, 42.1 -76.87, 50.76 -92.68" stroke="#c92a2a" stroke-width="2" fill="none"></path></g></g><mask></mask><g stroke-linecap="round" transform="translate(102.34443172623571 526.619552392997) rotate(1.960903001403936 11.791620654619635 11.39190470022578)"><path d="M10.77 0.06 C13.01 -0.18, 16.46 0.86, 18.49 2.4 C20.53 3.94, 22.37 6.89, 22.99 9.29 C23.61 11.68, 23.29 14.73, 22.22 16.77 C21.16 18.8, 18.83 20.65, 16.59 21.52 C14.34 22.38, 11.27 22.57, 8.76 21.94 C6.25 21.31, 2.96 19.66, 1.51 17.73 C0.05 15.8, -0.33 12.73, 0.01 10.34 C0.35 7.96, 1.63 5.06, 3.56 3.4 C5.48 1.74, 10.18 0.87, 11.55 0.39 C12.92 -0.1, 11.72 0.39, 11.8 0.5 M11.58 0.35 C14.15 0.26, 18.2 1.16, 20.1 2.77 C22.01 4.37, 22.77 7.51, 23.01 9.99 C23.26 12.46, 22.78 15.5, 21.58 17.61 C20.38 19.72, 18.12 21.85, 15.81 22.64 C13.5 23.43, 10.01 23.3, 7.72 22.35 C5.44 21.4, 3.25 19.05, 2.09 16.95 C0.93 14.84, 0.29 12.04, 0.77 9.73 C1.26 7.41, 3.27 4.71, 5.01 3.08 C6.76 1.46, 9.98 0.48, 11.24 -0.02 C12.49 -0.52, 12.38 -0.02, 12.54 0.07" stroke="#000000" stroke-width="4" fill="none"></path></g><g stroke-linecap="round" transform="translate(188.723570821563 529.779561956906) rotate(1.960903001403936 11.791620654619635 11.391904700225723)"><path d="M11.3 0.07 C13.73 -0.03, 17.02 1.46, 19.03 3.03 C21.04 4.61, 22.81 7.25, 23.35 9.52 C23.89 11.79, 23.44 14.63, 22.27 16.67 C21.11 18.71, 18.82 20.82, 16.34 21.76 C13.87 22.69, 9.91 23, 7.44 22.3 C4.97 21.59, 2.76 19.6, 1.51 17.53 C0.26 15.45, -0.52 12.25, -0.07 9.84 C0.38 7.43, 2.12 4.66, 4.19 3.07 C6.25 1.48, 10.79 0.76, 12.33 0.29 C13.87 -0.18, 13.43 0.14, 13.44 0.24 M11.93 0.01 C14.32 -0.22, 16.75 1.24, 18.58 2.8 C20.42 4.36, 22.34 6.96, 22.97 9.35 C23.6 11.75, 23.46 15.04, 22.37 17.18 C21.27 19.33, 18.64 21.4, 16.38 22.24 C14.12 23.08, 11.12 22.95, 8.79 22.24 C6.46 21.52, 3.72 19.92, 2.39 17.94 C1.05 15.96, 0.66 12.88, 0.78 10.38 C0.91 7.88, 1.29 4.7, 3.14 2.94 C5 1.19, 10.51 0.4, 11.91 -0.15 C13.32 -0.7, 11.76 -0.47, 11.58 -0.35" stroke="#000000" stroke-width="4" fill="none"></path></g><g stroke-linecap="round"><g transform="translate(220.63464077988374 486.8353145746746) rotate(182.09511819818616 -6.854663097144567 19.907069429664546)"><path d="M-0.01 -0.52 C-2.27 5.96, -11.38 32.65, -13.65 39.32 M-0.68 0.4 C-2.99 7.17, -11.84 33.18, -14.05 39.77" stroke="#e67700" stroke-width="2" fill="none"></path></g></g><mask></mask><g stroke-linecap="round"><g transform="translate(182.0722821286538 485.9819736738532) rotate(182.09511819818616 7.364525515090222 20.04666294350227)"><path d="M0.06 -0.49 C2.53 6.22, 12.29 33, 14.8 39.76 M-0.58 0.44 C1.83 7.26, 11.81 33.59, 14.41 40.28" stroke="#0000ff" stroke-width="2" fill="none"></path></g></g><mask></mask><g stroke-linecap="round"><g transform="translate(134.49077490275224 483.21448517735723) rotate(182.09511819818616 -6.956742055102097 19.80690991403958)"><path d="M0.08 -0.34 C-2.18 6.34, -11.17 32.86, -13.48 39.57 M-0.55 0.68 C-2.84 7.49, -11.44 33.86, -13.69 40.24" stroke="#000000" stroke-width="2" fill="none"></path></g></g><mask></mask><g stroke-linecap="round"><g transform="translate(94.65321228229257 482.48023527477744) rotate(182.09511819818616 7.78841910184633 20.05089325485477)"><path d="M0.95 -0.11 C3.57 6.8, 13.64 33.81, 15.92 40.7 M-0.02 -1.21 C2.47 5.41, 12.31 32.11, 15.16 38.89" stroke="#000000" stroke-width="2" fill="none"></path></g></g><mask></mask><g stroke-linecap="round"><g transform="translate(150.53241852441334 460.08036052240755) rotate(92.09511819818627 23.379278254067316 47.91308876759467)"><path d="M0.35 0.6 C7.83 16.78, 38.23 81.25, 45.83 96.98 M-0.93 -0.13 C6.84 15.75, 39.83 79.46, 48.06 95.46" stroke="#ff0000" stroke-width="2" fill="none"></path></g></g><mask></mask><g stroke-linecap="round"><g transform="translate(132.07378321710567 480.71324099378455) rotate(92.09511819818627 22.22474599460722 26.842875032447694)"><path d="M-0.93 1.15 C6.29 9.85, 36.03 44.1, 43.67 52.82 M0.79 0.71 C8.36 9.49, 38.7 44.91, 45.97 53.9" stroke="#ff0000" stroke-width="2" fill="none"></path></g></g><mask></mask><g stroke-linecap="round"><g transform="translate(138.90944670933027 534.839137433462) rotate(92.09511819818627 23.66791131893227 -26.26560890271753)"><path d="M-0.78 -0.87 C7.33 -9.85, 39.6 -44.03, 47.78 -52.74 M1.01 1.3 C9.09 -6.99, 39.23 -42.41, 47.07 -51.31" stroke="#1864ab" stroke-width="2" fill="none"></path></g></g><mask></mask><g stroke-linecap="round"><g transform="translate(116.40253603901934 556.486907097202) rotate(92.09511819818627 24.82244357839248 -46.75855650813463)"><path d="M0.45 -0.21 C9.01 -15.75, 42.26 -78.55, 50.61 -94.1 M-0.78 -1.36 C7.78 -16.67, 41.67 -77.73, 50.18 -92.87" stroke="#c92a2a" stroke-width="2" fill="none"></path></g></g><mask></mask><g stroke-linecap="round" transform="translate(484.0161743301499 331.7374953813496) rotate(1.960903001403936 11.791620654619635 11.39190470022578)"><path d="M13.35 -0.39 C15.79 -0.33, 18.94 1.45, 20.56 3.22 C22.18 4.99, 22.9 7.83, 23.09 10.23 C23.29 12.62, 23.15 15.58, 21.74 17.6 C20.32 19.62, 17.11 21.59, 14.59 22.35 C12.06 23.11, 8.84 23.16, 6.6 22.17 C4.37 21.18, 2.21 18.79, 1.15 16.43 C0.09 14.07, -0.45 10.41, 0.23 8.01 C0.91 5.61, 3.08 3.33, 5.23 2.05 C7.38 0.78, 11.79 0.57, 13.13 0.34 C14.46 0.11, 13.25 0.61, 13.25 0.68 M10.72 0.37 C13.1 0.03, 17.44 0.59, 19.49 1.91 C21.53 3.24, 22.41 5.92, 22.99 8.33 C23.57 10.73, 24.03 14.1, 22.96 16.33 C21.89 18.56, 19.04 20.68, 16.56 21.71 C14.09 22.74, 10.57 23.26, 8.09 22.51 C5.62 21.76, 3.12 19.42, 1.74 17.23 C0.35 15.03, -0.64 11.66, -0.23 9.34 C0.19 7.02, 2.19 4.88, 4.2 3.31 C6.21 1.74, 10.54 0.45, 11.81 -0.09 C13.09 -0.63, 11.97 -0.1, 11.85 0.1" stroke="#000000" stroke-width="4" fill="none"></path></g><g stroke-linecap="round" transform="translate(440.0781220723309 387.2951994968389) rotate(1.960903001403936 11.791620654619635 11.39190470022578)"><path d="M11.83 -0.17 C14.07 -0.35, 16.69 0.73, 18.66 2.21 C20.63 3.69, 23.12 6.28, 23.67 8.71 C24.23 11.13, 23.27 14.44, 21.99 16.74 C20.71 19.03, 18.31 21.51, 16.01 22.47 C13.7 23.43, 10.57 23.41, 8.16 22.5 C5.75 21.59, 2.87 19.13, 1.55 17.01 C0.24 14.89, -0.13 12.08, 0.26 9.77 C0.66 7.46, 1.96 4.71, 3.9 3.14 C5.84 1.57, 10.42 0.9, 11.9 0.34 C13.39 -0.22, 12.8 -0.4, 12.81 -0.2 M12.85 -0.41 C15.29 -0.61, 17.56 0.76, 19.45 2.43 C21.33 4.1, 23.76 7.13, 24.18 9.61 C24.6 12.09, 23.47 15.17, 21.97 17.31 C20.46 19.46, 17.62 21.79, 15.16 22.5 C12.69 23.21, 9.51 22.68, 7.15 21.6 C4.8 20.53, 2.09 18.12, 1.01 16.05 C-0.07 13.99, -0.02 11.52, 0.68 9.22 C1.37 6.92, 3.14 3.81, 5.18 2.25 C7.22 0.69, 11.75 0.21, 12.9 -0.13 C14.05 -0.48, 12.04 0.05, 12.06 0.19" stroke="#000000" stroke-width="4" fill="none"></path></g><g stroke-linecap="round" transform="translate(415.4422167054773 449.1918996231507) rotate(1.960903001403936 11.791620654619635 11.39190470022578)"><path d="M8.79 0.02 C11.09 -0.66, 15.28 -0.26, 17.57 0.9 C19.86 2.06, 21.62 4.57, 22.51 6.97 C23.4 9.37, 23.62 12.92, 22.91 15.31 C22.19 17.7, 20.35 20.13, 18.21 21.3 C16.06 22.47, 12.55 22.69, 10.05 22.33 C7.56 21.96, 4.92 20.82, 3.24 19.12 C1.55 17.43, 0.12 14.54, -0.05 12.15 C-0.21 9.76, 0.58 6.87, 2.25 4.79 C3.92 2.71, 8.62 0.37, 9.99 -0.32 C11.36 -1, 10.45 0.47, 10.48 0.67 M12.89 -0.48 C15.32 -0.33, 19.28 1.47, 21.1 3.31 C22.91 5.16, 23.8 8.05, 23.79 10.58 C23.78 13.1, 22.61 16.54, 21.04 18.47 C19.46 20.41, 16.82 21.76, 14.34 22.17 C11.86 22.58, 8.3 21.95, 6.14 20.95 C3.97 19.95, 2.19 18.32, 1.35 16.16 C0.5 14, 0.31 10.39, 1.08 7.98 C1.84 5.57, 3.96 3.03, 5.95 1.71 C7.93 0.38, 11.64 0.34, 12.97 0.03 C14.3 -0.27, 13.81 -0.18, 13.92 -0.11" stroke="#000000" stroke-width="4" fill="none"></path></g><g stroke-linecap="round" transform="translate(459.0242001157782 450.79069006312466) rotate(1.960903001403936 11.791620654619635 11.39190470022578)"><path d="M11.09 -0.35 C13.52 -0.66, 16.38 0.45, 18.37 1.99 C20.37 3.54, 22.35 6.51, 23.05 8.93 C23.75 11.35, 23.64 14.43, 22.56 16.5 C21.48 18.57, 18.86 20.37, 16.58 21.36 C14.3 22.35, 11.3 22.96, 8.88 22.43 C6.46 21.91, 3.58 20.14, 2.08 18.19 C0.57 16.24, -0.39 13.29, -0.14 10.74 C0.1 8.18, 1.68 4.6, 3.55 2.87 C5.42 1.15, 9.73 0.9, 11.09 0.4 C12.44 -0.1, 11.63 -0.31, 11.69 -0.12 M10.84 -0.18 C13.28 -0.59, 16.26 0.15, 18.26 1.53 C20.25 2.91, 22.09 5.8, 22.82 8.1 C23.54 10.4, 23.57 13.21, 22.6 15.33 C21.63 17.46, 19.16 19.59, 17.02 20.84 C14.88 22.1, 12.08 23.26, 9.75 22.83 C7.43 22.41, 4.6 20.31, 3.08 18.31 C1.55 16.32, 0.65 13.29, 0.6 10.86 C0.56 8.43, 1.07 5.59, 2.79 3.73 C4.5 1.87, 9.56 0.38, 10.88 -0.3 C12.2 -0.99, 10.89 -0.75, 10.73 -0.38" stroke="#000000" stroke-width="4" fill="none"></path></g><g stroke-linecap="round"><g transform="translate(444.9777046301048 409.41125811318204) rotate(2.0951181981862708 -6.899927293211476 19.726693965154766)"><path d="M-0.19 -0.5 C-2.46 6.07, -11.74 33.19, -14.08 39.82 M0.71 0.44 C-1.33 6.82, -10.68 32.49, -12.98 39.04" stroke="#e67700" stroke-width="2" fill="none"></path></g></g><mask></mask><g stroke-linecap="round"><g transform="translate(455.89922391917463 409.91736237098576) rotate(2.0951181981862708 7.292158418027839 19.847185171637932)"><path d="M-0.28 0.36 C2.12 7.03, 11.69 32.97, 14.16 39.5 M0.58 0.08 C3.16 6.86, 12.91 33.43, 15.17 40.1" stroke="#0000ff" stroke-width="2" fill="none"></path></g></g><mask></mask><g stroke-linecap="round" transform="translate(526.4572611676585 390.4552090607481) rotate(1.960903001403936 11.791620654619635 11.39190470022578)"><path d="M11.47 0.31 C13.85 -0.06, 16.86 0.6, 18.86 2.06 C20.86 3.52, 22.92 6.58, 23.47 9.07 C24.01 11.56, 23.38 14.81, 22.14 17.01 C20.9 19.21, 18.33 21.5, 16.01 22.29 C13.69 23.09, 10.62 22.51, 8.24 21.76 C5.85 21.01, 3.03 19.85, 1.69 17.8 C0.35 15.75, -0.21 11.87, 0.2 9.45 C0.61 7.03, 2.28 4.89, 4.15 3.28 C6.02 1.67, 10.16 0.22, 11.4 -0.21 C12.64 -0.64, 11.58 0.44, 11.6 0.69 M10.89 -0.29 C13.25 -0.73, 16.32 0.06, 18.44 1.61 C20.57 3.15, 22.9 6.53, 23.64 8.98 C24.39 11.43, 24.02 14.21, 22.94 16.33 C21.85 18.44, 19.58 20.68, 17.14 21.68 C14.69 22.67, 10.66 23.01, 8.26 22.28 C5.86 21.55, 4 19.45, 2.73 17.31 C1.46 15.17, 0.54 11.68, 0.63 9.44 C0.71 7.2, 1.49 5.33, 3.25 3.87 C5.02 2.4, 9.85 1.26, 11.23 0.64 C12.61 0.03, 11.47 -0.02, 11.54 0.18" stroke="#000000" stroke-width="4" fill="none"></path></g><g stroke-linecap="round" transform="translate(502.35642569679595 452.3759136332551) rotate(1.960903001403936 11.791620654619635 11.39190470022578)"><path d="M14.44 -0.02 C16.81 0.35, 19.95 2.65, 21.46 4.73 C22.97 6.8, 23.73 9.95, 23.5 12.44 C23.27 14.92, 21.82 18, 20.09 19.63 C18.36 21.27, 15.63 21.99, 13.13 22.26 C10.64 22.52, 7.21 22.57, 5.11 21.22 C3.02 19.88, 1.19 16.54, 0.55 14.19 C-0.1 11.84, 0.29 9.34, 1.26 7.13 C2.22 4.92, 4.1 1.99, 6.33 0.95 C8.56 -0.09, 13.16 0.9, 14.62 0.9 C16.09 0.89, 15.11 0.82, 15.1 0.9 M12.43 -0.56 C14.92 -0.42, 18.53 1.79, 20.48 3.59 C22.43 5.38, 23.83 7.87, 24.1 10.23 C24.37 12.59, 23.66 15.71, 22.09 17.73 C20.52 19.74, 17.09 21.73, 14.68 22.33 C12.27 22.93, 9.78 22.46, 7.61 21.33 C5.45 20.2, 2.96 17.57, 1.69 15.55 C0.42 13.53, -0.58 11.35, 0 9.21 C0.58 7.07, 2.98 4.26, 5.19 2.71 C7.39 1.17, 11.91 0.26, 13.25 -0.04 C14.6 -0.33, 13.24 0.73, 13.26 0.93" stroke="#000000" stroke-width="4" fill="none"></path></g><g stroke-linecap="round" transform="translate(546.2449286467354 453.9814875081506) rotate(1.960903001403936 11.791620654619635 11.39190470022578)"><path d="M13.69 0.16 C16.11 0.47, 18.96 2.23, 20.57 4.11 C22.19 5.99, 23.3 9.12, 23.39 11.44 C23.48 13.76, 22.67 16.11, 21.11 18.03 C19.55 19.94, 16.52 22.44, 14.04 22.94 C11.56 23.44, 8.4 22.22, 6.24 21.05 C4.08 19.88, 2.04 18.17, 1.06 15.92 C0.07 13.67, -0.37 9.86, 0.33 7.56 C1.03 5.26, 2.98 3.33, 5.26 2.14 C7.55 0.94, 12.45 0.67, 14.02 0.39 C15.59 0.12, 14.66 0.35, 14.68 0.49 M10.95 0.36 C13.47 0.05, 16.82 0.55, 18.95 1.84 C21.08 3.13, 23.16 5.75, 23.72 8.1 C24.29 10.46, 23.34 13.79, 22.33 15.97 C21.33 18.16, 19.85 20.25, 17.71 21.21 C15.57 22.17, 12.14 22.14, 9.5 21.73 C6.86 21.33, 3.42 20.55, 1.87 18.8 C0.33 17.04, -0.08 13.78, 0.24 11.22 C0.56 8.66, 2 5.16, 3.81 3.41 C5.61 1.66, 9.83 1.25, 11.08 0.72 C12.32 0.2, 11.28 0.08, 11.26 0.26" stroke="#000000" stroke-width="4" fill="none"></path></g><g stroke-linecap="round"><g transform="translate(531.4801417916156 412.16516954952203) rotate(2.0951181981862708 -6.857613181162492 19.96091424303154)"><path d="M0.33 -0.22 C-2.11 6.45, -11.78 33.4, -14.11 40.08 M-0.17 -0.8 C-2.48 5.68, -10.77 32.32, -13.08 39.19" stroke="#000000" stroke-width="2" fill="none"></path></g></g><mask></mask><g stroke-linecap="round"><g transform="translate(541.7691286529848 413.12018655102156) rotate(2.0951181981862708 7.788383196556936 20.050800818492974)"><path d="M-0.86 0.33 C1.63 7.07, 12.82 33.41, 15.67 39.96 M0.89 -0.54 C3.17 6.44, 12.29 34.55, 14.77 41.42" stroke="#000000" stroke-width="2" fill="none"></path></g></g><mask></mask><g stroke-linecap="round"><g transform="translate(486.71881531326636 351.39916576321593) rotate(2.0951181981862708 -13.978223483579939 18.599428869042185)"><path d="M0 0 C-4.66 6.2, -23.3 31, -27.96 37.2 M0 0 C-4.66 6.2, -23.3 31, -27.96 37.2" stroke="#000000" stroke-width="4" fill="none"></path></g></g><mask></mask><g stroke-linecap="round"><g transform="translate(503.06808758271285 353.2771485639387) rotate(2.0951181981862708 13.89168099112436 18.806096273744004)"><path d="M0 0 C4.63 6.27, 23.15 31.34, 27.78 37.61 M0 0 C4.63 6.27, 23.15 31.34, 27.78 37.61" stroke="#862e9c" stroke-width="4" fill="none"></path></g></g><mask></mask><g stroke-linecap="round"><g transform="translate(455.02968558240667 379.2933955193621) rotate(272.09511819818624 23.379278254067287 47.91308876759473)"><path d="M0.81 0.24 C8.31 16.25, 37.83 79.64, 45.64 95.6 M-0.23 -0.68 C7.57 15.55, 39.83 80.66, 47.77 97.02" stroke="#ff0000" stroke-width="2" fill="none"></path></g></g><mask></mask><g stroke-linecap="round"><g transform="translate(476.0085144304997 401.361957359999) rotate(272.09511819818624 22.22474599460719 26.842875032447694)"><path d="M-1.11 -0.22 C6.31 8.72, 37.91 44.81, 45.37 53.89 M0.5 -1.39 C7.78 7.15, 37.31 42.95, 44.9 51.88" stroke="#ff0000" stroke-width="2" fill="none"></path></g></g><mask></mask><g stroke-linecap="round"><g transform="translate(466.70634017888364 452.88850665738846) rotate(272.09511819818624 23.667911318932283 -26.26560890271753)"><path d="M0.92 0.21 C8.85 -8.41, 38.61 -43.05, 46.5 -51.95 M-0.06 -0.73 C8.35 -9.69, 40.77 -45.19, 48.77 -53.77" stroke="#1864ab" stroke-width="2" fill="none"></path></g></g><mask></mask><g stroke-linecap="round"><g transform="translate(486.0973593554476 473.1628227222941) rotate(272.09511819818624 24.822443578392495 -46.75855650813463)"><path d="M-0.84 0.58 C7.43 -15.16, 42.18 -78.36, 50.51 -94.19 M0.92 -0.17 C9.02 -15.77, 42.16 -77.44, 50.02 -93.01" stroke="#c92a2a" stroke-width="2" fill="none"></path></g></g><mask></mask><g stroke-linecap="round" transform="translate(436.2564365399473 517.5997790146685) rotate(1.960903001403936 11.791620654619635 11.39190470022578)"><path d="M14.38 0.18 C16.81 0.54, 19.91 2.56, 21.41 4.5 C22.91 6.44, 23.59 9.34, 23.35 11.84 C23.11 14.33, 21.64 17.6, 19.97 19.47 C18.31 21.35, 15.82 22.78, 13.36 23.09 C10.91 23.39, 7.41 22.74, 5.25 21.31 C3.09 19.88, 1.12 16.83, 0.4 14.51 C-0.32 12.19, -0.04 9.53, 0.93 7.38 C1.9 5.22, 4 2.79, 6.22 1.58 C8.45 0.37, 12.75 0.24, 14.28 0.11 C15.81 -0.02, 15.3 0.51, 15.4 0.79 M12.18 -0.02 C14.54 -0.23, 17.48 1.51, 19.41 3.13 C21.35 4.75, 23.38 7.37, 23.79 9.7 C24.2 12.03, 23.14 15.08, 21.87 17.12 C20.6 19.15, 18.33 21.19, 16.14 21.92 C13.95 22.64, 11.15 22.36, 8.71 21.47 C6.27 20.58, 2.88 18.48, 1.52 16.58 C0.15 14.68, 0.14 12.39, 0.54 10.06 C0.94 7.74, 2 4.26, 3.94 2.63 C5.88 1, 11.05 0.72, 12.2 0.28 C13.34 -0.17, 10.87 -0.21, 10.82 -0.03" stroke="#000000" stroke-width="4" fill="none"></path></g><g stroke-linecap="round" transform="translate(522.6355756352746 520.7597885785772) rotate(1.960903001403936 11.791620654619635 11.39190470022578)"><path d="M12.85 -0.05 C15.24 -0.04, 18.11 1.27, 19.82 3.03 C21.54 4.8, 22.81 8.01, 23.13 10.54 C23.44 13.06, 23.09 16.16, 21.72 18.2 C20.35 20.24, 17.39 22.19, 14.9 22.76 C12.42 23.33, 9.13 22.61, 6.84 21.62 C4.54 20.63, 2.25 18.93, 1.13 16.82 C0.01 14.71, -0.46 11.43, 0.09 8.94 C0.64 6.45, 2.19 3.33, 4.44 1.88 C6.69 0.43, 12.02 0.41, 13.6 0.22 C15.19 0.02, 14.07 0.47, 13.96 0.69 M14.64 0.92 C16.97 1.38, 20.16 3.16, 21.6 5.04 C23.04 6.92, 23.48 9.86, 23.3 12.19 C23.11 14.52, 22.06 17.4, 20.51 19.03 C18.96 20.65, 16.53 21.76, 13.98 21.97 C11.43 22.17, 7.39 21.37, 5.22 20.24 C3.05 19.1, 1.67 17.4, 0.95 15.16 C0.22 12.92, -0.16 9.06, 0.86 6.79 C1.88 4.53, 4.93 2.68, 7.07 1.55 C9.2 0.42, 12.42 0.15, 13.68 0.01 C14.94 -0.13, 14.63 0.42, 14.64 0.7" stroke="#000000" stroke-width="4" fill="none"></path></g><g stroke-linecap="round"><g transform="translate(554.5466402334098 477.815565025604) rotate(182.09511819818616 -6.854631253584387 19.906976950726232)"><path d="M0.17 -0.14 C-2.23 6.56, -11.52 33.37, -13.84 39.99 M-0.41 -0.69 C-2.93 5.86, -12.05 32.33, -14.35 39.12" stroke="#e67700" stroke-width="2" fill="none"></path></g></g><mask></mask><g stroke-linecap="round"><g transform="translate(515.9843035006861 476.9622393869304) rotate(182.09511819818616 7.36449145083634 20.046570218639715)"><path d="M-0.14 0.18 C2.28 6.85, 12.2 33.28, 14.63 39.86 M0.8 -0.2 C3.11 6.55, 11.95 33.74, 14.15 40.44" stroke="#0000ff" stroke-width="2" fill="none"></path></g></g><mask></mask><g stroke-linecap="round"><g transform="translate(468.5214174517849 473.87571832762615) rotate(182.09511819818616 -7.013113593841354 19.967408316981903)"><path d="M-0.09 -0.23 C-2.45 6.32, -11.99 32.76, -14.26 39.5 M-0.81 -0.83 C-3.24 5.77, -12.63 33.3, -14.81 39.97" stroke="#000000" stroke-width="2" fill="none"></path></g></g><mask></mask><g stroke-linecap="round"><g transform="translate(428.74750306605364 473.05405875287727) rotate(182.09511819818616 7.700991146260947 20.25575980354205)"><path d="M-0.51 -0.96 C2.19 5.96, 13.24 34.1, 16.04 40.98 M1.42 1.15 C4.04 7.75, 12.99 32.37, 15.43 39.11" stroke="#000000" stroke-width="2" fill="none"></path></g></g><mask></mask><g stroke-linecap="round"><g transform="translate(484.44442333812486 451.0605871440789) rotate(92.09511819818627 23.379278254067287 47.91308876759473)"><path d="M0.64 0.47 C8.67 16.58, 39.82 79.81, 47.67 95.66 M-0.48 -0.32 C7.51 16.05, 39.21 80.93, 47.2 97.11" stroke="#ff0000" stroke-width="2" fill="none"></path></g></g><mask></mask><g stroke-linecap="round"><g transform="translate(465.9857880308172 471.69346761545603) rotate(92.09511819818627 22.224745994607247 26.842875032447694)"><path d="M0.91 -0.16 C8.37 8.67, 38.21 44.49, 45.4 53.46 M-0.07 -1.3 C7.26 7.68, 37.76 45.51, 44.96 54.87" stroke="#ff0000" stroke-width="2" fill="none"></path></g></g><mask></mask><g stroke-linecap="round"><g transform="translate(472.82145152304184 525.8193640551335) rotate(92.09511819818627 23.667911318932283 -26.26560890271753)"><path d="M0.95 -0.23 C8.63 -8.97, 39.04 -43.78, 46.96 -52.61 M0 -1.4 C7.4 -9.92, 37.76 -42.64, 45.82 -51.11" stroke="#1864ab" stroke-width="2" fill="none"></path></g></g><mask></mask><g stroke-linecap="round"><g transform="translate(450.3145408527309 547.4671337188734) rotate(92.09511819818627 24.822443578392495 -46.75855650813463)"><path d="M-0.37 -0.08 C7.94 -15.73, 42.35 -78.41, 50.83 -94.18 M1.63 -1.16 C9.81 -16.65, 42.41 -77.53, 50.51 -92.99" stroke="#c92a2a" stroke-width="2" fill="none"></path></g></g><mask></mask><g stroke-linecap="round" transform="translate(46.459537169716384 604.0608284149366) rotate(0 119.25173488310674 41.61802329253169)"><path d="M20.81 0 C76.13 -2.2, 129.96 -2.28, 217.69 0 M20.81 0 C85.87 -0.98, 153.28 -0.7, 217.69 0 M217.69 0 C233.01 -1.46, 239.68 6.95, 238.5 20.81 M217.69 0 C232.12 -1.64, 237.1 8.45, 238.5 20.81 M238.5 20.81 C239.3 28.78, 239.16 38.4, 238.5 62.43 M238.5 20.81 C238.59 31.68, 237.89 41.43, 238.5 62.43 M238.5 62.43 C237.96 75.45, 232.49 83.01, 217.69 83.24 M238.5 62.43 C239.01 74.6, 229.74 84.94, 217.69 83.24 M217.69 83.24 C177.32 81.73, 133.7 81.59, 20.81 83.24 M217.69 83.24 C154.36 81.58, 93.01 81.13, 20.81 83.24 M20.81 83.24 C8.29 81.43, -1.29 74.61, 0 62.43 M20.81 83.24 C6.46 81.61, 1.59 76.43, 0 62.43 M0 62.43 C0.07 48.27, -2.1 34.28, 0 20.81 M0 62.43 C0.29 50.23, 0.11 39.12, 0 20.81 M0 20.81 C-0.17 5.37, 7.17 1.4, 20.81 0 M0 20.81 C0.72 6.42, 6.26 1.13, 20.81 0" stroke="#1e1e1e" stroke-width="2" fill="none"></path></g><g stroke-linecap="round" transform="translate(85.57860879858038 620.784911681151) rotate(1.960903001403936 11.239136376257292 10.825033073005557)"><path d="M9.46 0.49 C11.64 0.09, 14.8 0.7, 16.82 1.85 C18.85 3, 20.84 5.17, 21.63 7.38 C22.42 9.59, 22.43 12.9, 21.54 15.1 C20.66 17.3, 18.45 19.5, 16.32 20.57 C14.18 21.64, 11.05 22.11, 8.74 21.52 C6.44 20.93, 3.87 18.82, 2.49 17.01 C1.1 15.21, 0.3 12.88, 0.43 10.69 C0.56 8.5, 1.62 5.66, 3.26 3.88 C4.9 2.1, 9.06 0.69, 10.28 0.02 C11.49 -0.64, 10.58 -0.33, 10.57 -0.11 M13.8 0.25 C16.28 0.67, 19.23 2.61, 20.71 4.36 C22.19 6.11, 22.77 8.45, 22.66 10.76 C22.55 13.06, 21.65 16.3, 20.07 18.19 C18.49 20.07, 15.54 21.68, 13.19 22.08 C10.83 22.47, 8.15 21.96, 5.96 20.57 C3.78 19.19, 0.95 16.14, 0.09 13.79 C-0.77 11.44, -0.08 8.65, 0.81 6.48 C1.7 4.31, 3.26 1.76, 5.43 0.76 C7.6 -0.24, 12.4 0.55, 13.83 0.48 C15.27 0.41, 14.08 0.13, 14.04 0.35" stroke="none" stroke-width="0" fill="#1e1e1e"></path><path d="M10.85 -0.14 C13.18 -0.31, 16.28 1.45, 18.14 2.92 C20.01 4.38, 21.47 6.49, 22.04 8.65 C22.61 10.8, 22.75 13.77, 21.55 15.85 C20.35 17.93, 17.1 20.19, 14.84 21.12 C12.59 22.06, 10.19 22.27, 8 21.48 C5.81 20.68, 2.94 18.49, 1.71 16.38 C0.48 14.26, 0.23 11, 0.62 8.79 C1 6.58, 2.12 4.65, 4 3.14 C5.89 1.63, 10.53 0.23, 11.93 -0.28 C13.33 -0.78, 12.46 -0.07, 12.39 0.11 M10.12 0.29 C12.3 -0.16, 15.59 0.11, 17.69 1.47 C19.78 2.82, 22.03 6.03, 22.67 8.43 C23.31 10.83, 22.57 13.85, 21.55 15.86 C20.53 17.86, 18.81 19.59, 16.56 20.46 C14.31 21.33, 10.42 21.68, 8.04 21.07 C5.65 20.46, 3.46 18.61, 2.23 16.79 C0.99 14.98, 0.48 12.43, 0.61 10.16 C0.73 7.89, 1.41 4.83, 3 3.18 C4.6 1.53, 9.07 0.69, 10.17 0.25 C11.27 -0.19, 9.66 0.25, 9.6 0.51" stroke="#1e1e1e" stroke-width="4" fill="none"></path></g><g stroke-linecap="round" transform="translate(120.96280086579972 621.0700674287859) rotate(1.960903001403936 11.239136376257292 10.825033073005557)"><path d="M8.61 0.65 C10.7 0.01, 13.68 0.02, 15.84 0.92 C18.01 1.83, 20.54 4, 21.6 6.08 C22.67 8.16, 22.99 11.17, 22.24 13.4 C21.49 15.63, 19.2 18.07, 17.11 19.45 C15.02 20.84, 11.94 21.97, 9.68 21.71 C7.42 21.44, 5.19 19.61, 3.54 17.86 C1.89 16.1, -0.04 13.35, -0.22 11.19 C-0.4 9.03, 0.89 6.68, 2.46 4.9 C4.04 3.13, 8.09 1.34, 9.23 0.53 C10.37 -0.28, 9.26 -0.14, 9.3 0.04 M9.39 -0.12 C11.69 -0.55, 15.82 -0.32, 17.92 1.04 C20.02 2.39, 21.49 5.58, 21.99 7.99 C22.5 10.41, 21.81 13.48, 20.94 15.55 C20.07 17.61, 18.9 19.44, 16.79 20.39 C14.67 21.33, 10.53 21.79, 8.24 21.21 C5.94 20.64, 4.43 18.83, 3.01 16.95 C1.59 15.08, -0.27 12.18, -0.31 9.97 C-0.34 7.77, 1.04 5.44, 2.8 3.72 C4.56 2.01, 9.14 0.21, 10.27 -0.32 C11.4 -0.84, 9.78 0.37, 9.59 0.56" stroke="none" stroke-width="0" fill="#1e1e1e"></path><path d="M12.7 -0.12 C14.92 -0.05, 17.99 1.62, 19.54 3.39 C21.09 5.16, 21.84 8.1, 22.02 10.51 C22.19 12.92, 21.93 16.08, 20.58 17.84 C19.23 19.6, 16.27 20.61, 13.9 21.08 C11.53 21.54, 8.56 21.56, 6.34 20.62 C4.13 19.69, 1.49 17.57, 0.59 15.44 C-0.31 13.31, 0.17 10.2, 0.93 7.84 C1.69 5.48, 3.18 2.63, 5.14 1.31 C7.1 -0.02, 11.36 0, 12.67 -0.09 C13.97 -0.19, 12.94 0.51, 12.96 0.74 M11.69 0.56 C13.87 0.34, 16.16 0.81, 17.81 2.14 C19.47 3.48, 21.04 6.29, 21.64 8.58 C22.24 10.87, 22.5 13.86, 21.42 15.9 C20.35 17.94, 17.44 19.99, 15.21 20.83 C12.98 21.67, 10.29 21.81, 8.04 20.95 C5.79 20.09, 2.96 17.62, 1.69 15.67 C0.42 13.71, 0.08 11.48, 0.43 9.24 C0.78 7.01, 2.06 3.72, 3.78 2.26 C5.49 0.79, 9.38 0.74, 10.71 0.47 C12.05 0.19, 11.7 0.5, 11.79 0.61" stroke="#1e1e1e" stroke-width="4" fill="none"></path></g><g stroke-linecap="round" transform="translate(160.4367770450667 620.9552396109461) rotate(1.960903001403936 11.239136376257292 10.825033073005557)"><path d="M9.43 0.05 C11.59 -0.38, 14.68 0.42, 16.77 1.64 C18.87 2.86, 21.18 5.12, 22 7.36 C22.82 9.61, 22.52 12.87, 21.68 15.09 C20.84 17.31, 19.15 19.6, 16.96 20.71 C14.77 21.82, 10.94 22.27, 8.52 21.74 C6.11 21.22, 3.95 19.43, 2.46 17.58 C0.97 15.73, -0.51 12.97, -0.41 10.64 C-0.31 8.31, 1.25 5.42, 3.05 3.59 C4.84 1.76, 9.08 0.24, 10.37 -0.33 C11.66 -0.91, 10.74 -0.2, 10.78 0.11 M13.69 -0.1 C16.03 -0.06, 17.91 1.45, 19.46 3.14 C21 4.83, 22.79 7.6, 22.96 10.04 C23.13 12.47, 22.07 15.96, 20.47 17.76 C18.86 19.55, 15.76 20.42, 13.35 20.82 C10.94 21.22, 7.99 21.14, 5.99 20.15 C3.99 19.15, 2.21 17.12, 1.34 14.85 C0.46 12.57, -0.02 8.82, 0.74 6.47 C1.5 4.13, 3.88 1.84, 5.88 0.78 C7.88 -0.28, 11.47 0.2, 12.73 0.09 C13.99 -0.02, 13.39 -0.18, 13.44 0.11" stroke="none" stroke-width="0" fill="#1e1e1e"></path><path d="M10.32 0.49 C12.68 0.05, 15.76 0.63, 17.64 1.89 C19.52 3.15, 20.91 5.9, 21.62 8.05 C22.32 10.19, 22.7 12.79, 21.86 14.78 C21.02 16.77, 18.81 18.91, 16.58 19.98 C14.36 21.05, 10.82 21.73, 8.51 21.22 C6.2 20.71, 4.15 18.7, 2.74 16.93 C1.33 15.16, 0.09 12.77, 0.06 10.59 C0.02 8.42, 0.84 5.64, 2.54 3.88 C4.24 2.12, 9.04 0.68, 10.27 0.06 C11.49 -0.57, 9.81 0, 9.87 0.12 M10.2 0.64 C12.47 0.27, 15.09 0.64, 17.1 1.72 C19.11 2.81, 21.6 5.02, 22.28 7.15 C22.96 9.29, 22.27 12.2, 21.16 14.55 C20.06 16.89, 17.84 20.09, 15.64 21.23 C13.45 22.36, 10.15 21.97, 8 21.37 C5.84 20.77, 3.99 19.63, 2.71 17.63 C1.42 15.63, 0.17 11.69, 0.28 9.36 C0.39 7.04, 1.7 5.18, 3.37 3.69 C5.03 2.2, 9.22 1.11, 10.28 0.43 C11.34 -0.26, 9.67 -0.65, 9.75 -0.44" stroke="#1e1e1e" stroke-width="4" fill="none"></path></g><g stroke-linecap="round" transform="translate(196.40084959237515 620.9973431441542) rotate(1.960903001403936 11.239136376257278 10.825033073005557)"><path d="M13.45 -0.22 C15.68 0.04, 18.51 1.92, 20.03 3.82 C21.56 5.71, 22.76 8.82, 22.61 11.15 C22.46 13.49, 20.85 16.07, 19.12 17.84 C17.4 19.6, 14.48 21.37, 12.24 21.77 C9.99 22.16, 7.59 21.41, 5.66 20.2 C3.74 18.99, 1.55 16.74, 0.69 14.5 C-0.17 12.26, -0.41 8.92, 0.52 6.76 C1.45 4.6, 3.9 2.61, 6.27 1.55 C8.64 0.5, 13.31 0.62, 14.74 0.46 C16.17 0.3, 15.02 0.46, 14.86 0.6 M12.99 -0.57 C15.23 -0.39, 18.02 1.85, 19.7 3.66 C21.37 5.46, 22.96 8.06, 23.05 10.26 C23.14 12.46, 21.82 15.02, 20.24 16.85 C18.66 18.69, 15.79 20.72, 13.56 21.27 C11.34 21.81, 8.94 21.05, 6.91 20.12 C4.87 19.19, 2.34 17.67, 1.37 15.69 C0.41 13.72, 0.57 10.48, 1.11 8.28 C1.65 6.07, 2.77 3.92, 4.62 2.48 C6.47 1.05, 10.89 -0.1, 12.19 -0.35 C13.49 -0.61, 12.3 0.66, 12.42 0.94" stroke="none" stroke-width="0" fill="#1e1e1e"></path><path d="M12.94 0.37 C15.3 0.45, 18.04 1.54, 19.64 3.21 C21.24 4.88, 22.44 8.09, 22.54 10.41 C22.64 12.73, 21.65 15.35, 20.23 17.15 C18.81 18.94, 16.31 20.64, 14.01 21.2 C11.7 21.75, 8.61 21.52, 6.4 20.5 C4.19 19.48, 1.72 17.19, 0.75 15.07 C-0.22 12.94, -0.2 9.91, 0.56 7.75 C1.32 5.59, 3.29 3.44, 5.32 2.12 C7.35 0.81, 11.49 0.17, 12.74 -0.15 C14 -0.46, 12.91 0, 12.85 0.22 M11.92 0.29 C14.25 0.55, 18.28 2.34, 20.1 3.89 C21.93 5.45, 22.81 7.25, 22.87 9.6 C22.93 11.95, 22 16.11, 20.47 18 C18.94 19.89, 16.04 20.44, 13.71 20.95 C11.39 21.47, 8.56 22.12, 6.52 21.09 C4.48 20.05, 2.37 16.88, 1.49 14.74 C0.61 12.59, 0.52 10.4, 1.23 8.21 C1.93 6.03, 3.89 2.87, 5.72 1.63 C7.55 0.4, 11.1 0.95, 12.2 0.81 C13.29 0.67, 12.31 0.74, 12.3 0.8" stroke="#1e1e1e" stroke-width="4" fill="none"></path></g><g stroke-linecap="round" transform="translate(229.68943398402484 619.7380647418483) rotate(1.960903001403936 11.239136376257278 10.825033073005557)"><path d="M8.94 0.51 C11.02 -0.24, 13.87 -0.11, 16.03 0.9 C18.2 1.9, 21.02 4.32, 21.94 6.53 C22.86 8.74, 22.25 11.94, 21.56 14.16 C20.86 16.38, 19.77 18.61, 17.78 19.84 C15.8 21.08, 12.06 21.79, 9.63 21.59 C7.2 21.38, 4.8 20.25, 3.2 18.62 C1.6 16.98, 0.14 14.08, 0.06 11.78 C-0.03 9.47, 1.13 6.64, 2.71 4.77 C4.3 2.9, 8.36 1.27, 9.58 0.57 C10.8 -0.13, 10.01 0.41, 10.05 0.58 M11.83 -0.25 C14.13 -0.39, 17.04 0.83, 18.72 2.47 C20.4 4.12, 21.63 7.29, 21.91 9.63 C22.18 11.96, 21.63 14.67, 20.38 16.5 C19.12 18.32, 16.67 19.71, 14.4 20.57 C12.13 21.43, 8.92 22.26, 6.77 21.64 C4.61 21.02, 2.51 18.84, 1.48 16.85 C0.45 14.86, 0.1 12.01, 0.59 9.7 C1.07 7.39, 2.63 4.57, 4.39 3.01 C6.14 1.44, 10.08 0.69, 11.12 0.3 C12.15 -0.1, 10.63 0.39, 10.58 0.62" stroke="none" stroke-width="0" fill="#1e1e1e"></path><path d="M12.39 -0.19 C14.58 -0.11, 17.36 1.61, 19.11 3.27 C20.85 4.94, 22.63 7.44, 22.88 9.82 C23.12 12.19, 22.02 15.57, 20.6 17.54 C19.18 19.52, 16.8 21.08, 14.38 21.65 C11.95 22.23, 8.31 22.1, 6.04 20.98 C3.78 19.86, 1.72 17.05, 0.78 14.93 C-0.15 12.81, -0.33 10.42, 0.43 8.26 C1.19 6.1, 3.31 3.4, 5.35 1.96 C7.38 0.53, 11.33 -0.04, 12.62 -0.36 C13.9 -0.67, 13.04 -0.16, 13.05 0.08 M12.28 0.39 C14.69 0.39, 18.01 1.75, 19.77 3.3 C21.52 4.84, 22.65 7.29, 22.83 9.67 C23.01 12.06, 22.49 15.6, 20.86 17.6 C19.24 19.6, 15.64 21.19, 13.09 21.68 C10.54 22.17, 7.62 21.69, 5.57 20.55 C3.52 19.4, 1.64 16.85, 0.78 14.81 C-0.07 12.76, -0.15 10.36, 0.46 8.27 C1.06 6.19, 2.5 3.65, 4.43 2.31 C6.36 0.96, 10.56 0.63, 12.05 0.19 C13.54 -0.24, 13.36 -0.42, 13.37 -0.31" stroke="#1e1e1e" stroke-width="4" fill="none"></path></g><g stroke-linecap="round" transform="translate(385.303473475522 606.650390625) rotate(0 116.43923488310674 40.15122641753169)"><path d="M20.08 0 C83.83 -0.96, 147.92 1.35, 212.8 0 M20.08 0 C71.09 0.17, 120.63 0.94, 212.8 0 M212.8 0 C226.88 1.17, 232.68 8.67, 232.88 20.08 M212.8 0 C225.89 -2.28, 232.43 6.35, 232.88 20.08 M232.88 20.08 C233.59 31.94, 232.64 41.57, 232.88 60.23 M232.88 20.08 C233.31 32.65, 232.33 44.97, 232.88 60.23 M232.88 60.23 C234.4 72.7, 227.21 79.15, 212.8 80.3 M232.88 60.23 C231.04 75.12, 225.89 82.47, 212.8 80.3 M212.8 80.3 C155.55 79.53, 93.65 81.67, 20.08 80.3 M212.8 80.3 C169.21 81.13, 126.32 82.5, 20.08 80.3 M20.08 80.3 C5.21 81.59, -1.23 74.76, 0 60.23 M20.08 80.3 C5.46 78.23, 0.1 74.55, 0 60.23 M0 60.23 C-0.65 46.99, -0.85 34.36, 0 20.08 M0 60.23 C-0.62 46.94, 0.76 34.93, 0 20.08 M0 20.08 C-1.53 8.17, 5.51 -0.39, 20.08 0 M0 20.08 C-2.18 7.14, 7.17 1.39, 20.08 0" stroke="#846358" stroke-width="2" fill="none"></path></g><g stroke-linecap="round" transform="translate(411.11785760438596 616.7768176412144) rotate(1.960903001403936 11.239136376257278 10.825033073005557)"><path d="M9.94 0.18 C12.28 -0.31, 15.38 0.16, 17.36 1.37 C19.33 2.57, 21.12 5.16, 21.81 7.41 C22.49 9.65, 22.33 12.61, 21.44 14.83 C20.56 17.04, 18.54 19.62, 16.52 20.69 C14.5 21.75, 11.73 21.66, 9.31 21.2 C6.88 20.74, 3.54 19.8, 1.97 17.93 C0.4 16.07, -0.32 12.45, -0.1 10 C0.12 7.55, 1.6 4.98, 3.3 3.24 C4.99 1.5, 8.84 0.06, 10.08 -0.43 C11.32 -0.91, 10.64 0.13, 10.72 0.34 M9.68 -0.16 C11.99 -0.8, 15.1 -0.59, 17.03 0.68 C18.96 1.96, 20.38 5.2, 21.25 7.48 C22.12 9.76, 23.03 12.24, 22.27 14.38 C21.51 16.52, 18.78 19.11, 16.71 20.32 C14.64 21.53, 12.21 22.06, 9.87 21.65 C7.54 21.24, 4.25 19.74, 2.71 17.87 C1.17 16, 0.57 12.84, 0.64 10.45 C0.7 8.06, 1.72 5.12, 3.1 3.53 C4.48 1.93, 7.89 1.4, 8.94 0.9 C10 0.41, 9.42 0.38, 9.44 0.53" stroke="none" stroke-width="0" fill="#846358"></path><path d="M13.56 0.69 C15.8 1.05, 18.4 2.59, 19.89 4.41 C21.38 6.22, 22.54 9.29, 22.51 11.58 C22.49 13.87, 21.31 16.51, 19.74 18.17 C18.17 19.82, 15.61 21.23, 13.09 21.51 C10.56 21.78, 6.72 21.07, 4.61 19.8 C2.5 18.52, 1.01 16.04, 0.41 13.85 C-0.19 11.67, 0.03 8.8, 1.01 6.72 C1.99 4.64, 4.13 2.46, 6.31 1.37 C8.48 0.28, 12.7 0.3, 14.05 0.2 C15.39 0.09, 14.48 0.5, 14.4 0.74 M13.31 -0.24 C15.73 -0.26, 18.5 1.25, 19.93 3.1 C21.36 4.95, 21.85 8.37, 21.87 10.87 C21.89 13.38, 21.4 16.46, 20.04 18.15 C18.68 19.84, 16.05 20.51, 13.7 21.02 C11.34 21.52, 8.08 22.22, 5.91 21.16 C3.74 20.11, 1.45 17.06, 0.66 14.7 C-0.13 12.33, 0.31 9.02, 1.15 6.96 C1.99 4.89, 3.86 3.54, 5.69 2.3 C7.52 1.06, 11.07 -0.23, 12.11 -0.49 C13.16 -0.74, 12 0.4, 11.98 0.76" stroke="#846358" stroke-width="4" fill="none"></path></g><g stroke-linecap="round" transform="translate(57.75824020572594 328.5078125) rotate(0 109.703125 120.201171875)"><path d="M32 0 C90.26 -1.96, 145.33 -2.21, 187.41 0 M32 0 C87.13 -0.46, 144.37 -0.07, 187.41 0 M187.41 0 C209.06 -1.24, 217.49 9.78, 219.41 32 M187.41 0 C210.49 -0.75, 217.97 11.69, 219.41 32 M219.41 32 C220.01 75.79, 219.88 115.82, 219.41 208.4 M219.41 32 C219.49 94.26, 219.63 158.44, 219.41 208.4 M219.41 208.4 C221.22 228.47, 209.01 238.66, 187.41 240.4 M219.41 208.4 C219.9 227.59, 210.35 241.3, 187.41 240.4 M187.41 240.4 C145.38 238.87, 103.74 238.02, 32 240.4 M187.41 240.4 C139.06 241.56, 91.59 242.27, 32 240.4 M32 240.4 C10.26 240.79, 0.07 228.98, 0 208.4 M32 240.4 C9.85 242.61, -0.74 229.54, 0 208.4 M0 208.4 C-1.46 161.66, 0.6 114.75, 0 32 M0 208.4 C0.7 146.75, 0.99 85.05, 0 32 M0 32 C-0.59 9.12, 8.93 1.78, 32 0 M0 32 C2.18 9.99, 9.97 -0.28, 32 0" stroke="#1e1e1e" stroke-width="1" fill="none"></path></g><g stroke-linecap="round" transform="translate(381.89495895572594 323.45703125) rotate(0 109.703125 123.181640625)"><path d="M32 0 C73.98 -0.35, 120.4 -2.98, 187.41 0 M32 0 C68.84 -0.79, 105.37 -2.21, 187.41 0 M187.41 0 C206.76 1.75, 220.81 9.14, 219.41 32 M187.41 0 C206.99 -1.05, 220.93 11.82, 219.41 32 M219.41 32 C221.32 78.5, 221.57 123.42, 219.41 214.36 M219.41 32 C218.49 75.81, 219.45 118.56, 219.41 214.36 M219.41 214.36 C220.8 237.55, 210.21 248.11, 187.41 246.36 M219.41 214.36 C218.55 237.99, 210.87 247.54, 187.41 246.36 M187.41 246.36 C130.25 245.92, 72.87 246.69, 32 246.36 M187.41 246.36 C126.65 245.3, 64.49 246.19, 32 246.36 M32 246.36 C11.7 245.99, -0.86 234.55, 0 214.36 M32 246.36 C10.66 248.56, 1.94 235.92, 0 214.36 M0 214.36 C-1 165.69, 1.44 119.27, 0 32 M0 214.36 C2.16 169.42, 1.26 125.3, 0 32 M0 32 C-1.26 12.48, 9.88 1.52, 32 0 M0 32 C0.54 10.12, 10.2 0.28, 32 0" stroke="#846358" stroke-width="1" fill="none"></path></g><g stroke-linecap="round"><g transform="translate(155.71347435954152 600.46875) rotate(0 0.5244280212237982 -14.37890625)"><path d="M-0.21 -0.36 C0.11 -5.09, 1.4 -24.01, 1.54 -28.72 M0.68 0.64 C1 -3.96, 1.19 -23.24, 1.37 -28.01" stroke="#1e1e1e" stroke-width="1" fill="none"></path></g><g transform="translate(155.71347435954152 600.46875) rotate(0 0.5244280212237982 -14.37890625)"><path d="M5.98 -14.38 C4.46 -16.97, 3.88 -21.38, 1.37 -28.01 M5.98 -14.38 C4.5 -19.05, 3.31 -23.55, 1.37 -28.01" stroke="#1e1e1e" stroke-width="1" fill="none"></path></g><g transform="translate(155.71347435954152 600.46875) rotate(0 0.5244280212237982 -14.37890625)"><path d="M-3.86 -14.6 C-3.05 -17.12, -1.29 -21.48, 1.37 -28.01 M-3.86 -14.6 C-2.15 -19.2, -0.14 -23.63, 1.37 -28.01" stroke="#1e1e1e" stroke-width="1" fill="none"></path></g></g><mask></mask><g stroke-linecap="round"><g transform="translate(495.37285393505186 603.125743472561) rotate(0 -0.265625 -16.9453125)"><path d="M-0.5 0.42 C-0.61 -5.22, -0.44 -27.65, -0.36 -33.4 M0.25 0.16 C0.05 -5.66, -0.64 -28.49, -0.7 -34.11" stroke="#846358" stroke-width="1" fill="none"></path></g><g transform="translate(495.37285393505186 603.125743472561) rotate(0 -0.265625 -16.9453125)"><path d="M5.45 -18.31 C3.84 -23.72, 1.76 -28.84, -0.7 -34.11 M5.45 -18.31 C4.14 -22.56, 2.48 -27.21, -0.7 -34.11" stroke="#846358" stroke-width="1" fill="none"></path></g><g transform="translate(495.37285393505186 603.125743472561) rotate(0 -0.265625 -16.9453125)"><path d="M-6.14 -18.06 C-3.61 -23.5, -1.55 -28.71, -0.7 -34.11 M-6.14 -18.06 C-4.3 -22.39, -2.8 -27.11, -0.7 -34.11" stroke="#846358" stroke-width="1" fill="none"></path></g></g><mask></mask><g transform="translate(68.87081070985894 651.12109375) rotate(0 109.05491932614554 17.5)"><text x="0" y="24.528" font-family="Virgil, Segoe UI Emoji" font-size="28px" fill="#1e1e1e" text-anchor="start" style="white-space: pre;" direction="ltr" dominant-baseline="alphabetic">user features</text></g><g transform="translate(395.68983748205926 647.215666920471) rotate(0 109.56059022366665 17.5)"><text x="0" y="24.528" font-family="Virgil, Segoe UI Emoji" font-size="28px" fill="#1e1e1e" text-anchor="start" style="white-space: pre;" direction="ltr" dominant-baseline="alphabetic">recipe features</text></g><g stroke-linecap="round" transform="translate(454.0230100794685 615.7413731769943) rotate(1.960903001403936 11.239136376257306 10.825033073005557)"><path d="M13.67 0.33 C15.85 0.59, 18.4 2.12, 19.86 4.01 C21.32 5.9, 22.46 9.3, 22.42 11.68 C22.38 14.05, 21.2 16.7, 19.61 18.28 C18.03 19.86, 15.28 20.79, 12.91 21.16 C10.53 21.52, 7.49 21.66, 5.34 20.46 C3.2 19.26, 0.84 16.26, 0.04 13.97 C-0.76 11.67, -0.42 8.75, 0.54 6.69 C1.5 4.62, 3.64 2.7, 5.8 1.6 C7.95 0.51, 12.14 0.23, 13.49 0.11 C14.83 -0.01, 13.88 0.65, 13.85 0.89 M13.34 0.47 C15.72 0.87, 18.52 2.57, 20.09 4.34 C21.66 6.11, 22.89 8.94, 22.78 11.1 C22.66 13.26, 20.9 15.46, 19.4 17.28 C17.9 19.1, 16.01 21.64, 13.78 22.02 C11.56 22.4, 8.32 20.71, 6.05 19.56 C3.78 18.4, 1.04 17.01, 0.16 15.08 C-0.72 13.15, -0.23 10.31, 0.76 7.99 C1.74 5.67, 4.14 2.35, 6.07 1.15 C8.01 -0.05, 11.26 1, 12.37 0.78 C13.49 0.56, 12.75 -0.32, 12.78 -0.19" stroke="none" stroke-width="0" fill="#846358"></path><path d="M12.52 0.18 C14.85 0.44, 18.1 2.07, 19.69 3.78 C21.28 5.49, 22.08 8.2, 22.09 10.44 C22.11 12.68, 21.3 15.4, 19.79 17.22 C18.27 19.04, 15.36 20.75, 13.02 21.35 C10.68 21.95, 7.72 21.85, 5.72 20.81 C3.73 19.78, 1.88 17.41, 1.05 15.15 C0.22 12.89, 0.08 9.59, 0.73 7.25 C1.38 4.9, 2.8 2.26, 4.94 1.08 C7.08 -0.09, 12.13 0.22, 13.58 0.19 C15.03 0.15, 13.67 0.69, 13.63 0.87 M11.08 -0.43 C13.39 -0.65, 17.1 0.45, 18.85 2.03 C20.59 3.6, 21.17 6.71, 21.54 9.02 C21.9 11.33, 21.95 13.79, 21.03 15.88 C20.11 17.97, 18.24 20.67, 16.01 21.58 C13.78 22.48, 10.09 22.14, 7.68 21.33 C5.26 20.51, 2.87 18.64, 1.54 16.67 C0.21 14.7, -0.71 11.85, -0.29 9.52 C0.14 7.18, 2.13 4.3, 4.1 2.66 C6.07 1.03, 10.51 0.14, 11.54 -0.31 C12.58 -0.75, 10.34 -0.24, 10.31 -0.03" stroke="#846358" stroke-width="4" fill="none"></path></g><g stroke-linecap="round" transform="translate(492.44097882946863 617.5343419269946) rotate(1.960903001403936 11.239136376257306 10.825033073005557)"><path d="M13.11 0.11 C15.34 0.36, 17.95 2.21, 19.54 4.08 C21.12 5.95, 22.67 9.03, 22.62 11.34 C22.57 13.65, 20.84 16.21, 19.23 17.96 C17.62 19.7, 15.25 21.45, 12.96 21.8 C10.67 22.16, 7.64 21.37, 5.5 20.08 C3.36 18.79, 0.86 16.28, 0.13 14.07 C-0.6 11.86, 0.2 9.02, 1.13 6.83 C2.05 4.64, 3.44 2.07, 5.68 0.93 C7.91 -0.22, 13.05 0.07, 14.56 -0.04 C16.06 -0.15, 14.89 0.08, 14.71 0.28 M14.1 0.52 C16.26 0.83, 18.78 2.17, 20.15 4.08 C21.52 5.99, 22.4 9.54, 22.32 11.98 C22.25 14.41, 21.18 16.99, 19.69 18.69 C18.21 20.39, 15.94 22.06, 13.42 22.18 C10.91 22.29, 6.8 20.67, 4.62 19.38 C2.43 18.1, 0.85 16.63, 0.31 14.48 C-0.24 12.34, 0.41 8.66, 1.33 6.52 C2.24 4.37, 3.74 2.55, 5.79 1.6 C7.85 0.65, 12.31 1.13, 13.66 0.81 C15.01 0.5, 13.8 -0.4, 13.87 -0.26" stroke="none" stroke-width="0" fill="#846358"></path><path d="M11.49 -0.22 C13.8 -0.27, 16.89 1.11, 18.62 2.68 C20.35 4.25, 21.56 6.86, 21.89 9.18 C22.22 11.49, 21.79 14.68, 20.6 16.58 C19.4 18.48, 16.89 19.87, 14.71 20.59 C12.54 21.31, 9.77 21.64, 7.57 20.9 C5.37 20.17, 2.74 18.15, 1.53 16.18 C0.33 14.21, -0.04 11.42, 0.33 9.07 C0.71 6.72, 1.86 3.59, 3.79 2.09 C5.72 0.59, 10.44 0.37, 11.89 0.07 C13.34 -0.24, 12.43 0.1, 12.49 0.25 M8.94 -0.31 C11.23 -0.85, 14.82 0.81, 17.03 1.98 C19.25 3.14, 21.34 4.51, 22.23 6.66 C23.13 8.8, 23.22 12.66, 22.41 14.84 C21.6 17.01, 19.63 18.57, 17.38 19.71 C15.12 20.85, 11.36 22.03, 8.88 21.68 C6.4 21.33, 3.97 19.54, 2.49 17.6 C1 15.65, -0.01 12.38, -0.05 10 C-0.08 7.62, 0.74 4.85, 2.26 3.32 C3.77 1.8, 7.71 1.31, 9.03 0.84 C10.34 0.37, 10.06 0.42, 10.14 0.52" stroke="#846358" stroke-width="4" fill="none"></path></g><g stroke-linecap="round" transform="translate(536.0464475794686 616.3898106769943) rotate(1.960903001403936 11.239136376257306 10.825033073005557)"><path d="M12.21 0.52 C14.57 0.79, 17.85 2.19, 19.57 3.86 C21.29 5.54, 22.41 8.3, 22.51 10.57 C22.62 12.84, 21.62 15.66, 20.21 17.49 C18.8 19.32, 16.39 21.08, 14.04 21.57 C11.7 22.06, 8.32 21.48, 6.12 20.43 C3.93 19.37, 1.84 17.39, 0.88 15.24 C-0.08 13.1, -0.35 9.75, 0.37 7.56 C1.08 5.37, 3.08 3.32, 5.16 2.11 C7.24 0.9, 11.34 0.56, 12.85 0.29 C14.36 0.02, 14.19 0.35, 14.22 0.5 M9.43 0.04 C11.74 -0.32, 16.14 0.4, 18.26 1.66 C20.39 2.92, 21.73 5.34, 22.19 7.59 C22.64 9.85, 22.08 12.99, 21 15.18 C19.93 17.37, 17.82 19.73, 15.76 20.73 C13.69 21.73, 10.96 21.85, 8.61 21.17 C6.27 20.5, 3.14 18.65, 1.68 16.68 C0.22 14.7, -0.43 11.49, -0.14 9.33 C0.14 7.18, 1.63 5.4, 3.4 3.76 C5.18 2.12, 9.32 0.13, 10.51 -0.49 C11.71 -1.11, 10.49 -0.24, 10.55 0.04" stroke="none" stroke-width="0" fill="#846358"></path><path d="M13.39 0.51 C15.77 0.87, 18.89 2.21, 20.37 4.03 C21.85 5.84, 22.41 9.02, 22.28 11.41 C22.15 13.81, 21.15 16.79, 19.6 18.4 C18.05 20, 15.31 20.74, 13 21.04 C10.7 21.35, 7.89 21.33, 5.77 20.23 C3.64 19.13, 1.17 16.74, 0.26 14.44 C-0.65 12.14, -0.67 8.67, 0.31 6.41 C1.3 4.15, 3.82 1.92, 6.17 0.88 C8.52 -0.16, 12.97 0.2, 14.41 0.17 C15.85 0.14, 14.9 0.52, 14.81 0.71 M9.5 0.41 C11.85 0.09, 15.83 0.71, 17.77 1.85 C19.71 2.99, 20.39 5.21, 21.13 7.23 C21.88 9.26, 23.1 11.88, 22.24 14.01 C21.37 16.13, 18.19 18.66, 15.94 19.98 C13.69 21.31, 10.95 22.47, 8.76 21.96 C6.57 21.45, 4.25 18.69, 2.79 16.91 C1.34 15.14, 0.09 13.51, 0.02 11.3 C-0.04 9.09, 0.77 5.61, 2.4 3.67 C4.03 1.72, 8.52 0.22, 9.8 -0.35 C11.09 -0.92, 10.23 0.03, 10.1 0.24" stroke="#846358" stroke-width="4" fill="none"></path></g><g stroke-linecap="round" transform="translate(573.6909788294686 615.4523106769946) rotate(1.960903001403936 11.239136376257306 10.825033073005557)"><path d="M9.22 -0.12 C11.54 -0.71, 14.66 -0.03, 16.74 1.15 C18.81 2.33, 20.85 4.81, 21.65 6.98 C22.46 9.15, 22.24 11.94, 21.56 14.17 C20.88 16.4, 19.6 19.11, 17.57 20.35 C15.55 21.59, 11.78 22.04, 9.41 21.63 C7.05 21.21, 4.99 19.63, 3.36 17.86 C1.74 16.09, -0.11 13.25, -0.36 11 C-0.61 8.74, 0.32 6.18, 1.88 4.34 C3.45 2.5, 7.72 0.57, 9.03 -0.05 C10.34 -0.66, 9.64 0.42, 9.74 0.66 M8.82 0.19 C10.91 -0.4, 14.37 -0.23, 16.52 1 C18.67 2.22, 20.76 5.21, 21.73 7.51 C22.7 9.82, 23.17 12.64, 22.33 14.84 C21.48 17.03, 18.8 19.65, 16.65 20.67 C14.5 21.68, 11.92 21.53, 9.44 20.91 C6.97 20.29, 3.38 18.54, 1.79 16.93 C0.2 15.33, -0.32 13.46, -0.07 11.28 C0.19 9.11, 1.63 5.86, 3.33 3.9 C5.02 1.95, 8.97 0.1, 10.1 -0.44 C11.23 -0.98, 10.08 0.3, 10.12 0.68" stroke="none" stroke-width="0" fill="#846358"></path><path d="M11.73 -0.17 C13.95 -0.24, 16.31 1.1, 18.16 2.62 C20.01 4.15, 22.35 6.71, 22.82 8.97 C23.29 11.23, 22.35 14.19, 20.98 16.2 C19.61 18.2, 16.93 20.2, 14.6 21 C12.26 21.81, 9.16 21.89, 6.98 21.05 C4.8 20.22, 2.68 18.1, 1.5 16 C0.32 13.9, -0.52 10.8, -0.1 8.46 C0.32 6.12, 1.99 3.31, 4.03 1.95 C6.07 0.6, 10.67 0.67, 12.13 0.34 C13.59 0, 12.79 -0.18, 12.8 -0.08 M13.95 -0.3 C16.09 0.09, 18.22 2.99, 19.6 4.92 C20.98 6.86, 22.25 9.15, 22.23 11.3 C22.2 13.44, 21.08 16.2, 19.45 17.8 C17.82 19.39, 14.8 20.43, 12.46 20.89 C10.11 21.35, 7.33 21.79, 5.38 20.56 C3.42 19.33, 1.49 15.88, 0.73 13.5 C-0.03 11.13, -0.18 8.45, 0.82 6.29 C1.82 4.13, 4.55 1.54, 6.72 0.54 C8.9 -0.45, 12.62 0.22, 13.87 0.31 C15.12 0.4, 14.22 0.84, 14.24 1.06" stroke="#846358" stroke-width="4" fill="none"></path></g><g stroke-linecap="round" transform="translate(56.819005322619205 211.1222110824683) rotate(0 116.43923488310674 38.39341391753169)"><path d="M19.2 0 C61.56 -1.14, 103.47 0.1, 213.68 0 M19.2 0 C68.38 0.43, 118.54 1.13, 213.68 0 M213.68 0 C228.01 -0.29, 230.91 6.59, 232.88 19.2 M213.68 0 C227.02 0.36, 233.96 8.1, 232.88 19.2 M232.88 19.2 C232.5 30.17, 231.26 44.22, 232.88 57.59 M232.88 19.2 C233.47 33.81, 232.12 48.71, 232.88 57.59 M232.88 57.59 C231.82 69.78, 225.36 77.08, 213.68 76.79 M232.88 57.59 C233.79 71.9, 226.2 77.76, 213.68 76.79 M213.68 76.79 C156.64 76.03, 99.03 74.17, 19.2 76.79 M213.68 76.79 C142.42 75.16, 72.14 75.43, 19.2 76.79 M19.2 76.79 C5.28 75.3, -0.4 70.38, 0 57.59 M19.2 76.79 C5.61 78, 0.14 71.66, 0 57.59 M0 57.59 C-0.93 44.96, -1.49 29.4, 0 19.2 M0 57.59 C-0.4 45.95, -0.86 34.03, 0 19.2 M0 19.2 C-0.89 6.18, 7.36 -1, 19.2 0 M0 19.2 C-0.19 6.7, 7.35 -0.02, 19.2 0" stroke="#868e96" stroke-width="2" fill="none"></path></g><g stroke-linecap="round" transform="translate(83.2193269514832 251.52988809868293) rotate(1.960903001403936 11.239136376257292 10.825033073005613)"><path d="M10.56 0.32 C12.72 -0.08, 15.46 0.24, 17.34 1.57 C19.21 2.9, 21.19 6.03, 21.8 8.3 C22.4 10.57, 21.93 13.15, 20.97 15.2 C20.02 17.25, 18.18 19.62, 16.04 20.6 C13.91 21.57, 10.45 21.73, 8.15 21.06 C5.85 20.39, 3.54 18.47, 2.24 16.57 C0.94 14.67, 0.18 11.84, 0.35 9.64 C0.52 7.45, 1.57 5.01, 3.25 3.4 C4.93 1.78, 9.12 0.47, 10.44 -0.03 C11.76 -0.52, 11.12 0.32, 11.17 0.42 M12.86 -0.19 C15.15 0.18, 17.87 2.4, 19.59 4.25 C21.31 6.1, 23.26 8.72, 23.19 10.92 C23.12 13.12, 20.81 15.75, 19.17 17.45 C17.53 19.15, 15.75 20.62, 13.36 21.12 C10.97 21.62, 6.91 21.56, 4.83 20.43 C2.75 19.29, 1.61 16.66, 0.88 14.32 C0.15 11.98, -0.5 8.68, 0.43 6.4 C1.36 4.13, 4.19 1.75, 6.44 0.66 C8.7 -0.43, 12.77 -0.14, 13.96 -0.14 C15.15 -0.13, 13.83 0.36, 13.58 0.68" stroke="none" stroke-width="0" fill="#e9ecef"></path><path d="M10.99 -0.26 C13.27 -0.48, 16.31 0.89, 18.21 2.49 C20.12 4.08, 21.97 7.1, 22.42 9.31 C22.87 11.51, 22.12 13.76, 20.91 15.73 C19.7 17.69, 17.39 20.19, 15.15 21.11 C12.92 22.03, 9.71 22.03, 7.49 21.24 C5.28 20.45, 3.1 18.38, 1.89 16.39 C0.67 14.4, -0.14 11.67, 0.19 9.3 C0.53 6.93, 2.06 3.71, 3.9 2.16 C5.73 0.61, 9.79 0.36, 11.21 0 C12.64 -0.36, 12.47 -0.26, 12.46 -0.01 M9.87 -0.19 C12.14 -0.45, 15.19 0.62, 17.27 2.07 C19.36 3.52, 21.72 6.25, 22.39 8.52 C23.07 10.8, 22.41 13.68, 21.33 15.72 C20.25 17.76, 18.21 19.82, 15.94 20.75 C13.66 21.68, 9.92 21.96, 7.66 21.31 C5.41 20.67, 3.71 18.71, 2.38 16.88 C1.06 15.06, -0.5 12.73, -0.3 10.35 C-0.1 7.97, 1.88 4.34, 3.58 2.6 C5.28 0.86, 8.79 0.3, 9.91 -0.08 C11.03 -0.46, 10.3 0.23, 10.31 0.33" stroke="#868e96" stroke-width="4" fill="none"></path></g><g stroke-linecap="round" transform="translate(118.60351901870254 251.81504384631762) rotate(1.960903001403936 11.239136376257292 10.825033073005613)"><path d="M11.05 -0.4 C13.24 -0.51, 16.49 1.35, 18.29 2.9 C20.1 4.45, 21.45 6.66, 21.9 8.9 C22.34 11.14, 22.15 14.35, 20.96 16.34 C19.77 18.33, 17.01 20.15, 14.76 20.84 C12.51 21.53, 9.62 21.32, 7.45 20.49 C5.28 19.66, 2.94 17.78, 1.72 15.87 C0.5 13.96, -0.22 11.27, 0.15 9.02 C0.51 6.77, 1.93 3.85, 3.9 2.38 C5.87 0.92, 10.56 0.66, 11.97 0.23 C13.39 -0.21, 12.33 -0.3, 12.37 -0.22 M10.01 0.24 C12.5 -0.02, 16.6 0.68, 18.54 1.92 C20.47 3.15, 21.08 5.46, 21.62 7.66 C22.15 9.87, 22.82 12.91, 21.76 15.14 C20.7 17.37, 17.47 20.03, 15.25 21.05 C13.03 22.06, 10.73 22.02, 8.45 21.25 C6.18 20.47, 2.91 18.43, 1.61 16.4 C0.31 14.37, 0.29 11.33, 0.67 9.05 C1.06 6.77, 2.28 4.18, 3.94 2.72 C5.6 1.26, 9.66 0.61, 10.62 0.29 C11.58 -0.03, 9.85 0.73, 9.72 0.79" stroke="none" stroke-width="0" fill="#e9ecef"></path><path d="M13.36 0.21 C15.68 0.64, 18.72 2.8, 20.22 4.56 C21.73 6.31, 22.5 8.45, 22.4 10.73 C22.3 13, 21.22 16.36, 19.63 18.2 C18.04 20.04, 15.2 21.46, 12.87 21.78 C10.53 22.1, 7.69 21.34, 5.64 20.13 C3.59 18.91, 1.39 16.78, 0.57 14.49 C-0.25 12.19, -0.11 8.57, 0.72 6.37 C1.56 4.16, 3.29 2.3, 5.57 1.25 C7.84 0.2, 13 0.1, 14.36 0.06 C15.73 0.01, 13.9 0.83, 13.75 1 M9.7 0.17 C12.08 -0.07, 15.82 1.03, 17.87 2.37 C19.91 3.71, 21.37 6.04, 21.97 8.21 C22.56 10.38, 22.52 13.32, 21.44 15.39 C20.35 17.46, 17.56 19.65, 15.46 20.61 C13.35 21.57, 11.1 21.67, 8.82 21.17 C6.54 20.67, 3.19 19.58, 1.77 17.62 C0.36 15.67, 0.14 11.87, 0.32 9.45 C0.49 7.04, 1.2 4.7, 2.84 3.14 C4.48 1.59, 9 0.7, 10.14 0.13 C11.29 -0.44, 9.73 -0.45, 9.72 -0.29" stroke="#868e96" stroke-width="4" fill="none"></path></g><g stroke-linecap="round" transform="translate(158.0774951979695 251.70021602847783) rotate(1.960903001403936 11.239136376257292 10.825033073005613)"><path d="M12.5 0.36 C14.77 0.57, 17.48 1.7, 19.15 3.37 C20.82 5.04, 22.41 8.08, 22.54 10.4 C22.68 12.72, 21.4 15.51, 19.94 17.27 C18.48 19.04, 16.07 20.48, 13.79 20.96 C11.51 21.45, 8.44 21.14, 6.26 20.16 C4.09 19.19, 1.76 17.24, 0.76 15.12 C-0.23 13, -0.46 9.65, 0.3 7.44 C1.06 5.22, 3.17 3.14, 5.35 1.85 C7.53 0.56, 11.89 -0.01, 13.38 -0.29 C14.88 -0.57, 14.36 -0.02, 14.3 0.17 M10.48 -0.04 C12.71 -0.58, 14.77 -0.02, 16.75 1.18 C18.73 2.38, 21.65 4.8, 22.36 7.16 C23.08 9.51, 21.98 13.09, 21.04 15.3 C20.1 17.52, 18.81 19.5, 16.72 20.43 C14.63 21.36, 10.78 21.5, 8.49 20.89 C6.19 20.28, 4.27 18.56, 2.95 16.75 C1.62 14.94, 0.51 12.18, 0.54 10.02 C0.57 7.86, 1.73 5.35, 3.14 3.78 C4.56 2.22, 8.05 1.3, 9.04 0.64 C10.03 -0.01, 8.84 -0.3, 9.1 -0.15" stroke="none" stroke-width="0" fill="#e9ecef"></path><path d="M9.89 0.48 C12.16 -0.03, 15.18 0, 17.2 1.2 C19.22 2.4, 21.25 5.35, 22 7.68 C22.75 10.02, 22.57 13.05, 21.7 15.2 C20.84 17.34, 18.95 19.47, 16.8 20.56 C14.66 21.65, 11.27 22.32, 8.84 21.73 C6.41 21.14, 3.76 18.93, 2.23 17.03 C0.69 15.13, -0.6 12.64, -0.4 10.35 C-0.2 8.05, 1.71 4.91, 3.4 3.26 C5.09 1.61, 8.57 1, 9.74 0.45 C10.9 -0.1, 10.34 -0.11, 10.39 -0.05 M10.69 0.52 C13.01 0.25, 15.8 1.06, 17.7 2.35 C19.6 3.64, 21.58 6.06, 22.08 8.26 C22.58 10.46, 21.69 13.5, 20.71 15.55 C19.73 17.6, 18.37 19.51, 16.22 20.54 C14.08 21.57, 10.19 22.42, 7.86 21.73 C5.53 21.03, 3.6 18.38, 2.24 16.37 C0.88 14.35, -0.49 11.83, -0.3 9.63 C-0.11 7.43, 1.7 4.85, 3.41 3.16 C5.12 1.47, 8.83 -0.04, 9.97 -0.53 C11.11 -1.01, 10.22 -0.09, 10.26 0.24" stroke="#868e96" stroke-width="4" fill="none"></path></g><g stroke-linecap="round" transform="translate(194.04156774527797 251.7423195616857) rotate(1.960903001403936 11.239136376257278 10.825033073005613)"><path d="M8.55 0 C10.83 -0.62, 14.51 0.16, 16.67 1.26 C18.83 2.37, 20.63 4.55, 21.54 6.64 C22.45 8.73, 22.8 11.61, 22.12 13.81 C21.43 16, 19.52 18.5, 17.42 19.83 C15.32 21.16, 12 22.08, 9.53 21.77 C7.06 21.46, 4.15 19.7, 2.57 17.96 C1 16.22, 0.09 13.71, 0.07 11.32 C0.05 8.93, 0.84 5.52, 2.44 3.6 C4.03 1.68, 8.5 0.41, 9.66 -0.19 C10.83 -0.8, 9.52 -0.23, 9.44 -0.04 M11.49 -0.49 C13.73 -0.52, 17.73 0.88, 19.45 2.63 C21.17 4.38, 21.6 7.66, 21.83 10.03 C22.06 12.41, 22.14 15.1, 20.84 16.88 C19.54 18.66, 16.27 20.2, 14.01 20.72 C11.76 21.25, 9.35 20.96, 7.29 20.04 C5.23 19.13, 2.8 17.16, 1.67 15.23 C0.55 13.31, 0.16 10.58, 0.53 8.48 C0.9 6.37, 2.11 4.11, 3.91 2.62 C5.7 1.14, 9.86 -0.1, 11.32 -0.43 C12.79 -0.76, 12.64 0.4, 12.69 0.63" stroke="none" stroke-width="0" fill="#e9ecef"></path><path d="M10.98 -0.49 C13.25 -0.71, 16.47 0.95, 18.37 2.54 C20.26 4.12, 21.84 6.72, 22.35 9 C22.86 11.28, 22.61 14.17, 21.44 16.21 C20.26 18.26, 17.61 20.52, 15.29 21.27 C12.96 22.01, 9.82 21.48, 7.47 20.67 C5.12 19.86, 2.34 18.35, 1.19 16.38 C0.04 14.42, 0.21 11.09, 0.59 8.87 C0.96 6.65, 1.69 4.57, 3.45 3.05 C5.21 1.52, 9.84 0.23, 11.16 -0.28 C12.49 -0.8, 11.41 -0.22, 11.41 -0.04 M11.57 0.32 C13.8 0.2, 17.04 1.4, 18.73 2.91 C20.42 4.42, 21.32 7.12, 21.71 9.38 C22.11 11.63, 22.34 14.4, 21.11 16.44 C19.88 18.48, 16.65 20.97, 14.35 21.61 C12.04 22.25, 9.52 21.26, 7.29 20.29 C5.06 19.31, 2.12 17.71, 0.95 15.76 C-0.22 13.82, -0.22 10.97, 0.27 8.63 C0.77 6.29, 2.05 3.16, 3.92 1.72 C5.79 0.28, 10.26 0.19, 11.51 0 C12.75 -0.18, 11.37 0.37, 11.39 0.62" stroke="#868e96" stroke-width="4" fill="none"></path></g><g stroke-linecap="round" transform="translate(227.33015213692767 250.48304115938026) rotate(1.960903001403936 11.239136376257278 10.825033073005613)"><path d="M12.76 0.04 C15.1 0.19, 17.7 1.64, 19.36 3.28 C21.01 4.92, 22.5 7.57, 22.69 9.89 C22.87 12.2, 21.98 15.22, 20.47 17.18 C18.96 19.14, 16.08 21.09, 13.64 21.63 C11.19 22.16, 7.93 21.47, 5.82 20.39 C3.7 19.32, 1.81 17.41, 0.93 15.19 C0.04 12.98, -0.26 9.4, 0.51 7.1 C1.28 4.79, 3.53 2.57, 5.58 1.34 C7.62 0.12, 11.57 -0.05, 12.79 -0.26 C14 -0.46, 12.85 -0.22, 12.87 0.1 M11.15 -0.39 C13.42 -0.48, 15.6 1.1, 17.49 2.58 C19.38 4.06, 21.93 6.37, 22.49 8.49 C23.06 10.61, 21.93 13.37, 20.88 15.31 C19.82 17.26, 18.24 19.23, 16.16 20.15 C14.08 21.07, 10.76 21.35, 8.39 20.81 C6.03 20.27, 3.46 18.71, 1.96 16.91 C0.46 15.1, -0.79 12.39, -0.63 9.97 C-0.46 7.55, 0.94 3.98, 2.95 2.39 C4.96 0.79, 10.18 0.78, 11.44 0.4 C12.69 0.02, 10.49 -0.08, 10.48 0.1" stroke="none" stroke-width="0" fill="#e9ecef"></path><path d="M13.42 0.32 C15.72 0.72, 18.47 2.44, 20.05 4.24 C21.62 6.04, 22.9 8.8, 22.85 11.14 C22.8 13.47, 21.41 16.59, 19.76 18.25 C18.1 19.92, 15.36 20.82, 12.91 21.13 C10.46 21.43, 7.02 21.27, 5.05 20.1 C3.07 18.93, 1.85 16.23, 1.06 14.1 C0.28 11.98, -0.44 9.52, 0.32 7.35 C1.08 5.18, 3.39 2.3, 5.61 1.08 C7.83 -0.14, 12.23 0.15, 13.65 0.03 C15.07 -0.09, 14.11 0.09, 14.11 0.34 M13.03 0.26 C15.21 0.43, 17.48 2.09, 19.11 3.81 C20.75 5.53, 22.75 8.17, 22.83 10.56 C22.91 12.96, 21.12 16.45, 19.58 18.17 C18.04 19.9, 15.96 20.57, 13.59 20.9 C11.23 21.23, 7.51 21.17, 5.37 20.13 C3.23 19.1, 1.6 16.96, 0.74 14.71 C-0.12 12.47, -0.55 8.88, 0.22 6.67 C0.99 4.47, 3.27 2.53, 5.37 1.51 C7.47 0.48, 11.53 0.66, 12.82 0.54 C14.1 0.42, 13 0.75, 13.08 0.77" stroke="#868e96" stroke-width="4" fill="none"></path></g><g stroke-linecap="round"><g transform="translate(168.36280967481753 326.461680972561) rotate(0 0.08897564876818365 -19.51016813499359)"><path d="M-0.01 -0.18 C0.09 -6.69, 0.56 -32.91, 0.58 -39.37 M-0.67 -0.74 C-0.62 -7.18, 0.28 -32.59, 0.36 -38.85" stroke="#1e1e1e" stroke-width="1" fill="none"></path></g><g transform="translate(168.36280967481753 326.461680972561) rotate(0 0.08897564876818365 -19.51016813499359)"><path d="M6.57 -20.35 C4.42 -25.24, 2.23 -31.58, 0.36 -38.85 M6.57 -20.35 C4.66 -26.33, 2.68 -31.98, 0.36 -38.85" stroke="#1e1e1e" stroke-width="1" fill="none"></path></g><g transform="translate(168.36280967481753 326.461680972561) rotate(0 0.08897564876818365 -19.51016813499359)"><path d="M-6.77 -20.69 C-4.88 -25.47, -3.02 -31.72, 0.36 -38.85 M-6.77 -20.69 C-4.49 -26.57, -2.27 -32.11, 0.36 -38.85" stroke="#1e1e1e" stroke-width="1" fill="none"></path></g></g><mask></mask><g stroke-linecap="round" transform="translate(362.15103657261926 211.1183048324683) rotate(0 116.43923488310674 37.50864829253169)"><path d="M18.75 0 C91.98 0.03, 160.12 2.01, 214.12 0 M18.75 0 C70.11 0.34, 121.46 -0.71, 214.12 0 M214.12 0 C225.09 0.06, 234.21 5.49, 232.88 18.75 M214.12 0 C226.15 0.8, 231.31 8.01, 232.88 18.75 M232.88 18.75 C231.53 27.59, 231.04 37.09, 232.88 56.26 M232.88 18.75 C232.34 29.26, 232.36 39.01, 232.88 56.26 M232.88 56.26 C231.49 67.59, 225.77 75.24, 214.12 75.02 M232.88 56.26 C232.35 67.53, 224.56 73.91, 214.12 75.02 M214.12 75.02 C151.04 74.88, 85.99 74.68, 18.75 75.02 M214.12 75.02 C170.5 77.11, 128.54 77.39, 18.75 75.02 M18.75 75.02 C6.19 74.72, -1.7 70.43, 0 56.26 M18.75 75.02 C6.25 76.12, 0.49 69.57, 0 56.26 M0 56.26 C-1.33 49.97, 0.27 39.9, 0 18.75 M0 56.26 C0.46 43.14, -0.05 30.98, 0 18.75 M0 18.75 C1.17 5.73, 4.77 -0.66, 18.75 0 M0 18.75 C1.91 8.07, 5.12 0.32, 18.75 0" stroke="#d2bab0" stroke-width="2" fill="none"></path></g><g stroke-linecap="round" transform="translate(387.9615144514831 250.78379434868293) rotate(1.960903001403936 11.239136376257278 10.825033073005613)"><path d="M11.41 -0.5 C13.69 -0.74, 16.93 0.44, 18.7 2.06 C20.47 3.68, 21.62 6.93, 22.02 9.24 C22.42 11.55, 22.21 13.9, 21.09 15.89 C19.97 17.89, 17.58 20.31, 15.3 21.21 C13.03 22.11, 9.77 22.13, 7.44 21.31 C5.12 20.49, 2.56 18.31, 1.38 16.3 C0.2 14.29, -0.02 11.6, 0.39 9.24 C0.81 6.89, 2.03 3.64, 3.88 2.17 C5.73 0.7, 10.06 0.78, 11.48 0.42 C12.91 0.06, 12.41 -0.19, 12.44 0 M9.72 -0.15 C11.86 -0.67, 14.69 0.44, 16.64 1.64 C18.59 2.85, 20.68 4.84, 21.43 7.07 C22.19 9.3, 22.01 12.96, 21.16 15.03 C20.31 17.09, 18.29 18.38, 16.33 19.45 C14.36 20.53, 11.74 21.86, 9.38 21.47 C7.01 21.08, 3.67 18.84, 2.12 17.11 C0.58 15.38, 0.11 13.28, 0.1 11.12 C0.09 8.95, 0.68 5.96, 2.09 4.14 C3.49 2.33, 7.45 0.97, 8.53 0.25 C9.62 -0.48, 8.36 -0.32, 8.57 -0.18" stroke="none" stroke-width="0" fill="#a18072"></path><path d="M13.85 0.36 C16.19 0.7, 19.12 2.7, 20.52 4.48 C21.92 6.26, 22.4 8.69, 22.23 11.03 C22.05 13.38, 21.09 16.82, 19.46 18.56 C17.82 20.3, 14.76 21.3, 12.39 21.47 C10.03 21.63, 7.19 20.85, 5.27 19.55 C3.35 18.25, 1.6 15.86, 0.87 13.69 C0.13 11.52, 0.03 8.62, 0.86 6.51 C1.69 4.41, 3.72 2.12, 5.83 1.08 C7.94 0.05, 12.18 0.36, 13.54 0.32 C14.9 0.29, 13.93 0.75, 13.99 0.87 M11.53 -0.41 C13.86 -0.36, 16.96 1.52, 18.75 3.14 C20.53 4.76, 22.06 7.08, 22.25 9.32 C22.43 11.55, 21.16 14.45, 19.87 16.54 C18.58 18.63, 16.78 21.11, 14.51 21.86 C12.25 22.6, 8.43 22.09, 6.25 21.02 C4.08 19.95, 2.4 17.69, 1.45 15.45 C0.51 13.21, 0.07 9.69, 0.59 7.58 C1.11 5.47, 2.75 4.01, 4.57 2.77 C6.39 1.54, 10.24 0.55, 11.52 0.19 C12.79 -0.17, 12.15 0.48, 12.22 0.61" stroke="#d2bab0" stroke-width="4" fill="none"></path></g><g stroke-linecap="round" transform="translate(430.86666692656564 249.97881863446264) rotate(1.960903001403936 11.239136376257306 10.825033073005613)"><path d="M12.08 -0.45 C14.29 -0.34, 16.89 1.61, 18.62 3.22 C20.36 4.82, 22.13 6.89, 22.51 9.18 C22.88 11.47, 22.2 14.89, 20.87 16.94 C19.55 19, 16.92 20.84, 14.56 21.49 C12.2 22.14, 8.9 21.75, 6.71 20.84 C4.52 19.93, 2.53 18.16, 1.44 16.02 C0.35 13.88, -0.32 10.25, 0.16 8.01 C0.64 5.77, 2.21 3.96, 4.32 2.59 C6.42 1.22, 11.34 0.1, 12.79 -0.19 C14.23 -0.48, 13.13 0.58, 12.99 0.84 M11.74 0.25 C13.89 0.3, 16.94 1.32, 18.61 2.97 C20.27 4.62, 21.5 7.95, 21.73 10.14 C21.97 12.32, 21.24 14.22, 20.03 16.06 C18.82 17.9, 16.78 20.5, 14.48 21.17 C12.18 21.83, 8.43 20.91, 6.23 20.03 C4.04 19.16, 2.37 17.81, 1.3 15.9 C0.23 13.99, -0.61 10.83, -0.19 8.55 C0.24 6.27, 1.95 3.73, 3.85 2.21 C5.75 0.7, 9.81 -0.2, 11.21 -0.56 C12.62 -0.92, 12.17 -0.25, 12.29 0.06" stroke="none" stroke-width="0" fill="#a18072"></path><path d="M13.18 0.27 C15.42 0.38, 17.87 1.5, 19.42 3.26 C20.97 5.03, 22.42 8.5, 22.49 10.87 C22.56 13.23, 21.32 15.75, 19.85 17.45 C18.38 19.16, 15.92 20.66, 13.66 21.09 C11.4 21.53, 8.42 21.12, 6.26 20.06 C4.11 19.01, 1.74 16.87, 0.74 14.74 C-0.26 12.61, -0.45 9.5, 0.25 7.31 C0.94 5.12, 2.75 2.73, 4.91 1.59 C7.07 0.45, 11.7 0.71, 13.18 0.47 C14.67 0.22, 13.82 0.04, 13.83 0.11 M10.41 0.09 C12.75 -0.14, 16.04 0.49, 17.9 1.82 C19.75 3.16, 20.95 5.67, 21.54 8.11 C22.12 10.54, 22.48 14.25, 21.42 16.43 C20.36 18.6, 17.37 20.37, 15.17 21.14 C12.96 21.91, 10.39 21.9, 8.2 21.05 C6.01 20.21, 3.39 17.87, 2.02 16.05 C0.66 14.24, -0.17 12.32, 0.01 10.15 C0.19 7.98, 1.28 4.64, 3.1 3.02 C4.92 1.39, 9.65 0.86, 10.92 0.38 C12.19 -0.1, 10.85 -0.11, 10.72 0.11" stroke="#d2bab0" stroke-width="4" fill="none"></path></g><g stroke-linecap="round" transform="translate(469.28463567656587 251.5413186344631) rotate(1.960903001403936 11.239136376257306 10.825033073005613)"><path d="M8.17 0.64 C10.33 -0.02, 13.97 -0.26, 16.22 0.73 C18.48 1.72, 20.72 4.36, 21.7 6.58 C22.68 8.8, 22.81 11.86, 22.1 14.06 C21.4 16.27, 19.41 18.51, 17.45 19.82 C15.49 21.12, 12.74 22.19, 10.35 21.89 C7.95 21.59, 4.81 19.66, 3.07 18.02 C1.32 16.38, -0.04 14.35, -0.13 12.06 C-0.23 9.76, 0.97 6.16, 2.5 4.27 C4.04 2.37, 7.96 1.33, 9.08 0.71 C10.21 0.1, 9.2 0.42, 9.24 0.58 M9.67 0.09 C11.84 -0.23, 14.85 1.23, 16.81 2.4 C18.77 3.56, 20.64 4.96, 21.42 7.09 C22.21 9.21, 22.5 13.03, 21.54 15.15 C20.57 17.27, 17.8 18.73, 15.66 19.8 C13.51 20.86, 11 21.94, 8.67 21.55 C6.35 21.16, 3.24 19.34, 1.69 17.45 C0.14 15.55, -0.77 12.64, -0.65 10.19 C-0.52 7.74, 0.6 4.49, 2.45 2.77 C4.29 1.05, 9.14 0.28, 10.42 -0.11 C11.71 -0.49, 10.18 0.29, 10.15 0.46" stroke="none" stroke-width="0" fill="#a18072"></path><path d="M11.43 -0.38 C13.67 -0.4, 17 1.53, 18.8 3.13 C20.59 4.73, 21.83 7.06, 22.18 9.24 C22.54 11.43, 22.11 14.31, 20.93 16.24 C19.74 18.18, 17.39 20.09, 15.07 20.85 C12.74 21.61, 9.31 21.64, 6.96 20.79 C4.61 19.95, 2.16 17.84, 0.97 15.8 C-0.22 13.75, -0.74 10.75, -0.2 8.54 C0.34 6.33, 2.11 4.04, 4.21 2.56 C6.3 1.08, 10.92 0.1, 12.37 -0.33 C13.82 -0.77, 12.96 -0.23, 12.91 -0.05 M9.42 -0.28 C11.6 -0.82, 14.33 -0.14, 16.45 1.24 C18.56 2.62, 21.3 5.71, 22.11 8.02 C22.91 10.33, 22.17 13.08, 21.3 15.12 C20.44 17.16, 18.93 19.29, 16.92 20.24 C14.91 21.19, 11.67 21.16, 9.24 20.83 C6.81 20.5, 3.98 19.97, 2.35 18.28 C0.72 16.59, -0.64 13.07, -0.53 10.69 C-0.42 8.31, 1.33 5.8, 3.02 4.01 C4.7 2.23, 8.57 0.51, 9.57 0 C10.56 -0.51, 8.95 0.7, 8.99 0.95" stroke="#d2bab0" stroke-width="4" fill="none"></path></g><g stroke-linecap="round" transform="translate(512.8901044265656 250.39678738446264) rotate(1.960903001403936 11.239136376257306 10.825033073005613)"><path d="M8.74 -0.04 C11.02 -0.7, 14.34 0.21, 16.48 1.36 C18.62 2.5, 20.7 4.73, 21.6 6.83 C22.5 8.93, 22.54 11.75, 21.88 13.97 C21.23 16.19, 19.66 18.94, 17.65 20.15 C15.64 21.36, 12.28 21.45, 9.82 21.21 C7.36 20.96, 4.48 20.35, 2.91 18.68 C1.34 17.02, 0.52 13.53, 0.41 11.23 C0.31 8.92, 0.92 6.66, 2.28 4.87 C3.65 3.08, 7.4 1.16, 8.6 0.47 C9.79 -0.23, 9.39 0.6, 9.45 0.72 M11.45 0.61 C13.7 0.52, 16.68 0.87, 18.51 2.4 C20.34 3.92, 22.19 7.45, 22.43 9.76 C22.67 12.06, 21.29 14.27, 19.94 16.22 C18.59 18.17, 16.65 20.69, 14.34 21.47 C12.04 22.24, 8.41 21.88, 6.09 20.89 C3.77 19.91, 1.49 17.78, 0.43 15.55 C-0.64 13.33, -1.1 9.83, -0.31 7.54 C0.47 5.26, 3.04 3.06, 5.13 1.84 C7.22 0.62, 11.06 0.52, 12.23 0.21 C13.41 -0.09, 12.2 -0.09, 12.18 0.02" stroke="none" stroke-width="0" fill="#a18072"></path><path d="M12.09 0.36 C14.38 0.43, 17.14 1.46, 18.89 2.97 C20.64 4.47, 22.26 7.12, 22.6 9.4 C22.93 11.68, 22.3 14.68, 20.91 16.64 C19.52 18.61, 16.68 20.52, 14.25 21.19 C11.81 21.85, 8.56 21.55, 6.29 20.61 C4.03 19.67, 1.68 17.55, 0.66 15.52 C-0.35 13.49, -0.48 10.75, 0.21 8.44 C0.9 6.13, 2.7 3.12, 4.81 1.67 C6.91 0.21, 11.44 -0.01, 12.83 -0.28 C14.22 -0.55, 13.26 -0.16, 13.16 0.05 M10.88 -0.36 C13.23 -0.26, 17.05 1.69, 18.9 3.35 C20.75 5, 21.6 7.38, 21.97 9.56 C22.34 11.73, 22.3 14.57, 21.14 16.39 C19.99 18.22, 17.4 19.62, 15.04 20.49 C12.69 21.36, 9.39 22.34, 7.02 21.61 C4.65 20.89, 1.92 18.24, 0.82 16.14 C-0.28 14.04, -0.15 11.34, 0.42 9.02 C0.98 6.71, 2.48 3.63, 4.23 2.23 C5.98 0.83, 9.69 0.9, 10.91 0.63 C12.13 0.35, 11.41 0.46, 11.54 0.58" stroke="#d2bab0" stroke-width="4" fill="none"></path></g><g stroke-linecap="round" transform="translate(550.5346356765658 249.2288186344631) rotate(1.960903001403936 11.239136376257306 10.825033073005613)"><path d="M13.14 0.34 C15.41 0.64, 18.18 2.27, 19.72 3.98 C21.25 5.7, 22.26 8.31, 22.35 10.62 C22.43 12.94, 21.74 16.13, 20.24 17.88 C18.74 19.62, 15.75 20.59, 13.32 21.07 C10.9 21.54, 7.71 21.83, 5.69 20.74 C3.66 19.65, 2 16.67, 1.17 14.52 C0.33 12.38, 0.02 9.98, 0.66 7.86 C1.3 5.75, 2.92 3.05, 5.03 1.82 C7.13 0.6, 11.93 0.76, 13.28 0.5 C14.63 0.25, 13.17 0.24, 13.14 0.32 M10.73 -0.7 C13.13 -0.92, 16.7 1.06, 18.54 2.56 C20.38 4.06, 21.35 5.97, 21.76 8.3 C22.18 10.62, 22.23 14.37, 21.03 16.52 C19.82 18.68, 16.91 20.49, 14.51 21.24 C12.11 21.99, 8.92 21.98, 6.64 21.03 C4.35 20.09, 1.8 17.64, 0.79 15.59 C-0.22 13.53, 0.03 10.84, 0.6 8.68 C1.17 6.53, 2.4 4.14, 4.2 2.66 C6 1.17, 10.21 0.22, 11.41 -0.23 C12.61 -0.68, 11.5 -0.28, 11.41 -0.03" stroke="none" stroke-width="0" fill="#a18072"></path><path d="M8.91 0.09 C11.15 -0.57, 14.66 -0.08, 16.86 1.02 C19.07 2.11, 21.29 4.46, 22.11 6.67 C22.94 8.89, 22.72 12.07, 21.82 14.29 C20.92 16.52, 18.83 18.82, 16.7 20.02 C14.56 21.22, 11.37 21.81, 9.03 21.51 C6.68 21.21, 4.1 20.02, 2.62 18.21 C1.14 16.39, 0.13 13.06, 0.14 10.64 C0.14 8.21, 1.12 5.45, 2.65 3.64 C4.19 1.84, 8.21 0.38, 9.35 -0.21 C10.5 -0.8, 9.47 -0.13, 9.52 0.09 M9.94 0.72 C12.24 0.4, 14.8 0.87, 16.86 2 C18.92 3.12, 21.44 5.38, 22.27 7.44 C23.11 9.49, 22.87 12.05, 21.89 14.33 C20.91 16.62, 18.64 19.93, 16.38 21.13 C14.11 22.34, 10.62 22.11, 8.31 21.56 C6 21.01, 3.92 19.69, 2.53 17.81 C1.14 15.93, 0.03 12.55, -0.01 10.27 C-0.05 8, 0.67 5.8, 2.29 4.16 C3.92 2.52, 8.46 1.06, 9.74 0.46 C11.01 -0.14, 10.03 0.39, 9.93 0.57" stroke="#d2bab0" stroke-width="4" fill="none"></path></g><g stroke-linecap="round"><g transform="translate(485.7979322038207 323.6297867720052) rotate(0 -0.265625 -16.9453125)"><path d="M-0.51 -0.01 C-0.59 -5.63, 0.03 -28.2, -0.02 -33.91 M0.23 -0.48 C0.08 -6, 0.07 -27.66, -0.19 -33.22" stroke="#846358" stroke-width="1" fill="none"></path></g><g transform="translate(485.7979322038207 323.6297867720052) rotate(0 -0.265625 -16.9453125)"><path d="M5.94 -17.42 C3.6 -22.73, 1.22 -30.05, -0.19 -33.22 M5.94 -17.42 C4.17 -20.91, 2.69 -25.12, -0.19 -33.22" stroke="#846358" stroke-width="1" fill="none"></path></g><g transform="translate(485.7979322038207 323.6297867720052) rotate(0 -0.265625 -16.9453125)"><path d="M-5.65 -17.18 C-3.54 -22.53, -1.46 -29.94, -0.19 -33.22 M-5.65 -17.18 C-4.75 -20.68, -3.57 -24.94, -0.19 -33.22" stroke="#846358" stroke-width="1" fill="none"></path></g></g><mask></mask><g transform="translate(74.79316462958039 215.578125) rotate(0 96.56859120114554 15.496323838138721)"><text x="0" y="21.719647491535255" font-family="Virgil, Segoe UI Emoji" font-size="24.794118141021983px" fill="#1e1e1e" text-anchor="start" style="white-space: pre;" direction="ltr" dominant-baseline="alphabetic">user embedding</text></g><g transform="translate(378.28317221161495 210.8046875) rotate(0 135.543427369111 16.27745728176052)"><text x="0" y="22.814484126115513" font-family="Virgil, Segoe UI Emoji" font-size="26.043931650816795px" fill="#1e1e1e" text-anchor="start" style="white-space: pre;" direction="ltr" dominant-baseline="alphabetic">recipe embedding</text></g><g stroke-linecap="round"><g transform="translate(168.634204178753 210.11209267360596) rotate(0 61.29070115041523 -42.64524279525182)"><path d="M1.01 0.7 C2.99 -7.9, -8.79 -36.47, 11.59 -50.88 C31.98 -65.28, 104.84 -79.91, 123.3 -85.73 M0.08 0.02 C2.48 -9.01, -6.52 -38.66, 13.96 -52.77 C34.43 -66.88, 104.82 -79.28, 122.92 -84.64" stroke="#1e1e1e" stroke-width="1" fill="none"></path></g><g transform="translate(168.634204178753 210.11209267360596) rotate(0 61.29070115041523 -42.64524279525182)"><path d="M102.04 -70.88 C108.82 -75.91, 114.08 -77.36, 122.92 -84.64 M102.04 -70.88 C106.8 -73.45, 112.38 -78.1, 122.92 -84.64" stroke="#1e1e1e" stroke-width="1" fill="none"></path></g><g transform="translate(168.634204178753 210.11209267360596) rotate(0 61.29070115041523 -42.64524279525182)"><path d="M98.08 -87.52 C106.04 -88.05, 112.38 -84.95, 122.92 -84.64 M98.08 -87.52 C103.86 -85.68, 110.48 -85.95, 122.92 -84.64" stroke="#1e1e1e" stroke-width="1" fill="none"></path></g></g><mask></mask><g stroke-linecap="round"><g transform="translate(481.8982180260785 209.19256055355072) rotate(0 -62.34891960094106 -43.17256354752686)"><path d="M0 1.18 C-3.93 -7.76, -3.09 -38.55, -23.68 -53.32 C-44.27 -68.08, -106.66 -81.73, -123.55 -87.4 M-1.46 0.76 C-5.58 -8.59, -4.5 -40.72, -24.87 -55.28 C-45.25 -69.85, -107.03 -81.38, -123.71 -86.64" stroke="#846358" stroke-width="1" fill="none"></path></g><g transform="translate(481.8982180260785 209.19256055355072) rotate(0 -62.34891960094106 -43.17256354752686)"><path d="M-98.83 -89.12 C-104.08 -89.17, -112.79 -85.76, -123.71 -86.64 M-98.83 -89.12 C-104.96 -88.43, -109.49 -88.93, -123.71 -86.64" stroke="#846358" stroke-width="1" fill="none"></path></g><g transform="translate(481.8982180260785 209.19256055355072) rotate(0 -62.34891960094106 -43.17256354752686)"><path d="M-103.05 -72.55 C-107.13 -77.41, -114.6 -78.82, -123.71 -86.64 M-103.05 -72.55 C-108.25 -75.34, -111.88 -79.35, -123.71 -86.64" stroke="#846358" stroke-width="1" fill="none"></path></g></g><mask></mask><g stroke-linecap="round" transform="translate(292.64105270572594 83.8984375) rotate(0 32.310546875 30.947265625)"><path d="M42.29 1.34 C48.74 3.08, 55.7 10.08, 59.36 15.6 C63.01 21.12, 65.11 28.02, 64.2 34.47 C63.29 40.92, 58.93 49.9, 53.9 54.31 C48.87 58.72, 40.95 60.7, 34.04 60.93 C27.12 61.15, 17.99 59.63, 12.41 55.68 C6.83 51.72, 2.1 43.81, 0.55 37.19 C-1 30.57, -0.01 21.75, 3.12 15.93 C6.26 10.11, 12.71 4.53, 19.36 2.25 C26.01 -0.04, 38.81 2.12, 43 2.21 C47.2 2.31, 44.62 2.25, 44.53 2.83 M33.9 -1.11 C40.56 -1.48, 49.89 2.19, 54.74 7.19 C59.59 12.19, 62.46 21.85, 62.98 28.88 C63.51 35.91, 61.63 43.91, 57.88 49.37 C54.13 54.82, 47.05 60.07, 40.47 61.6 C33.9 63.12, 24.82 61.31, 18.43 58.52 C12.05 55.74, 5.24 50.49, 2.15 44.87 C-0.94 39.25, -2.14 31.49, -0.1 24.8 C1.94 18.1, 8.83 8.74, 14.37 4.71 C19.91 0.68, 29.68 1.51, 33.12 0.64 C36.56 -0.24, 35.03 -0.9, 35.02 -0.54" stroke="#1e1e1e" stroke-width="1" fill="none"></path></g><g transform="translate(331.80902145572594 96.828125) rotate(0 -9.55078125 18.86328125)" stroke="none"><path fill="#1e1e1e" d="M 1.88,0.90 Q 1.88,0.90 0.97,2.66 0.05,4.41 -1.07,6.33 -2.20,8.26 -4.25,11.98 -6.31,15.71 -7.65,18.18 -8.99,20.65 -9.96,22.43 -10.92,24.21 -11.48,25.47 -12.03,26.73 -12.44,28.06 -12.86,29.39 -13.22,30.53 -13.59,31.66 -13.91,32.91 -14.23,34.16 -14.61,35.28 -14.98,36.41 -16.37,38.22 -17.77,40.03 -18.17,40.18 -18.58,40.33 -19.01,40.35 -19.44,40.36 -19.85,40.24 -20.26,40.12 -20.61,39.87 -20.97,39.62 -21.22,39.27 -21.47,38.92 -21.60,38.51 -21.73,38.10 -21.72,37.67 -21.72,37.24 -21.57,36.83 -21.42,36.43 -21.16,36.09 -20.89,35.75 -20.53,35.52 -20.17,35.28 -19.75,35.18 -19.33,35.07 -18.90,35.10 -18.47,35.13 -18.07,35.30 -17.68,35.47 -17.36,35.75 -17.03,36.04 -16.82,36.41 -16.60,36.79 -16.52,37.21 -16.43,37.63 -16.49,38.06 -16.55,38.49 -16.73,38.87 -16.92,39.26 -17.23,39.57 -17.53,39.87 -17.91,40.07 -18.30,40.26 -18.72,40.32 -19.15,40.38 -19.57,40.31 -20.00,40.23 -20.37,40.02 -20.75,39.81 -21.04,39.49 -21.33,39.17 -21.50,38.78 -21.68,38.38 -21.71,37.95 -21.75,37.52 -21.65,37.10 -21.55,36.69 -21.32,36.32 -21.09,35.96 -20.76,35.68 -20.42,35.41 -20.42,35.41 -20.42,35.41 -19.62,33.97 -18.82,32.53 -18.25,31.31 -17.68,30.09 -17.19,28.98 -16.70,27.86 -15.90,26.49 -15.11,25.12 -14.38,23.93 -13.66,22.74 -12.71,20.97 -11.77,19.20 -10.51,16.67 -9.25,14.15 -7.30,10.35 -5.36,6.56 -4.42,4.63 -3.48,2.70 -2.68,0.89 -1.88,-0.90 -1.75,-1.12 -1.61,-1.33 -1.43,-1.50 -1.25,-1.68 -1.03,-1.80 -0.81,-1.93 -0.56,-2.00 -0.32,-2.07 -0.07,-2.08 0.18,-2.08 0.42,-2.03 0.67,-1.98 0.90,-1.87 1.13,-1.76 1.32,-1.60 1.52,-1.44 1.67,-1.24 1.82,-1.03 1.91,-0.80 2.01,-0.57 2.05,-0.32 2.09,-0.07 2.07,0.17 2.05,0.43 1.97,0.67 1.88,0.90 1.88,0.90 L 1.88,0.90 Z"></path></g><g transform="translate(309.66058395572594 105.16796875) rotate(0 17.17578125 13.826171875)" stroke="none"><path fill="#1e1e1e" d="M 1.56,-1.35 Q 1.56,-1.35 3.25,0.74 4.94,2.85 8.67,6.62 12.40,10.39 16.28,13.65 20.17,16.91 22.67,18.58 25.17,20.26 26.67,21.16 28.18,22.07 29.33,22.57 30.48,23.07 31.90,23.61 33.31,24.15 34.36,24.85 35.40,25.55 35.71,25.78 36.02,26.00 36.24,26.31 36.46,26.62 36.57,26.98 36.67,27.35 36.66,27.73 36.65,28.11 36.52,28.46 36.38,28.82 36.14,29.11 35.90,29.41 35.58,29.61 35.26,29.81 34.89,29.90 34.52,29.99 34.14,29.96 33.76,29.92 33.42,29.77 33.07,29.62 32.79,29.36 32.51,29.11 32.32,28.77 32.14,28.44 32.07,28.07 32.00,27.69 32.05,27.32 32.11,26.94 32.28,26.60 32.45,26.26 32.72,26.00 32.99,25.73 33.33,25.56 33.67,25.40 34.05,25.35 34.43,25.30 34.80,25.38 35.17,25.45 35.50,25.64 35.83,25.83 36.08,26.11 36.33,26.40 36.48,26.75 36.63,27.10 36.66,27.48 36.69,27.85 36.59,28.22 36.50,28.59 36.29,28.91 36.08,29.23 35.78,29.46 35.49,29.70 35.13,29.83 34.77,29.96 34.39,29.96 34.01,29.97 33.65,29.86 33.29,29.74 33.29,29.74 33.29,29.74 31.82,28.74 30.36,27.74 29.35,27.05 28.35,26.37 27.38,25.59 26.42,24.81 24.96,23.81 23.50,22.82 20.81,21.11 18.13,19.40 14.06,16.12 9.99,12.84 6.05,9.07 2.11,5.30 0.27,3.32 -1.56,1.35 -1.70,1.14 -1.84,0.94 -1.92,0.70 -2.01,0.47 -2.04,0.22 -2.07,-0.02 -2.03,-0.27 -2.00,-0.51 -1.91,-0.75 -1.82,-0.98 -1.67,-1.18 -1.53,-1.39 -1.34,-1.55 -1.15,-1.71 -0.93,-1.83 -0.71,-1.94 -0.46,-2.00 -0.22,-2.05 0.02,-2.05 0.27,-2.05 0.51,-1.98 0.75,-1.92 0.97,-1.80 1.19,-1.69 1.38,-1.52 1.56,-1.35 1.56,-1.35 L 1.56,-1.35 Z"></path></g><g transform="translate(257.62505094919703 149.2109375) rotate(0 90.52962022576719 15.096638231862244)"><text x="0" y="21.159448145778136" font-family="Virgil, Segoe UI Emoji" font-size="24.15462117097961px" fill="#1e1e1e" text-anchor="start" style="white-space: pre;" direction="ltr" dominant-baseline="alphabetic">dot product</text></g><g stroke-linecap="round"><g transform="translate(326.255297928753 83.86990517360596) rotate(0 0.08897564876818365 -19.51016813499359)"><path d="M0.36 0.19 C0.33 -6.39, -0.13 -32.58, -0.22 -39.03 M-0.11 -0.19 C0.02 -6.44, 0.63 -31.82, 0.8 -38.34" stroke="#1e1e1e" stroke-width="1" fill="none"></path></g><g transform="translate(326.255297928753 83.86990517360596) rotate(0 0.08897564876818365 -19.51016813499359)"><path d="M7.01 -19.85 C5.43 -26.03, 3.22 -31.44, 0.8 -38.34 M7.01 -19.85 C4.78 -27.55, 1.74 -34.25, 0.8 -38.34" stroke="#1e1e1e" stroke-width="1" fill="none"></path></g><g transform="translate(326.255297928753 83.86990517360596) rotate(0 0.08897564876818365 -19.51016813499359)"><path d="M-6.33 -20.18 C-3.95 -26.31, -2.19 -31.62, 0.8 -38.34 M-6.33 -20.18 C-3.32 -27.74, -1.13 -34.32, 0.8 -38.34" stroke="#1e1e1e" stroke-width="1" fill="none"></path></g></g><mask></mask><g transform="translate(228.34808395572594 10) rotate(0 102.24195098876953 17.5)"><text x="0" y="24.528" font-family="Virgil, Segoe UI Emoji" font-size="28px" fill="#1e1e1e" text-anchor="start" style="white-space: pre;" direction="ltr" dominant-baseline="alphabetic">similarity score</text></g><g transform="translate(-46.556359615130695 426.4446663003931) rotate(270.0352661708725 74.10196685791016 17.5)"><text x="0" y="24.528" font-family="Virgil, Segoe UI Emoji" font-size="28px" fill="#1e1e1e" text-anchor="start" style="white-space: pre;" direction="ltr" dominant-baseline="alphabetic">user tower</text></g><g transform="translate(561.1177673821387 413.5055309821903) rotate(270.0352661708725 72.365966796875 17.5)"><text x="0" y="24.528" font-family="Virgil, Segoe UI Emoji" font-size="28px" fill="#1e1e1e" text-anchor="start" style="white-space: pre;" direction="ltr" dominant-baseline="alphabetic">item tower</text></g></svg>